<svg id="图层_1" data-name="图层 1" xmlns="http://www.w3.org/2000/svg" viewBox="0 0 520 38"><defs><style>.cls-1{fill:#969696;}</style></defs><title>kbs网站</title><path class="cls-1" d="M6.82,1.67,4.13,4.1l3,3.28H6.9L4,4.23,2.75,5.34v2H2.56V1.67h.19V5.09L6.52,1.67Z"/><path class="cls-1" d="M10.22,1.67A1.77,1.77,0,0,1,11.37,2a1.32,1.32,0,0,1,.47,1.08,1.27,1.27,0,0,1-.31.86,1.4,1.4,0,0,1-.75.45,1.55,1.55,0,0,1,.92.46,1.38,1.38,0,0,1,.37,1A1.4,1.4,0,0,1,11.49,7a2.27,2.27,0,0,1-1.33.36H7.78V1.67ZM8,4.32h2.25a1.59,1.59,0,0,0,1-.31,1.09,1.09,0,0,0,.42-.9,1.13,1.13,0,0,0-.42-.94,1.61,1.61,0,0,0-1-.3H8ZM8,7.19h2.27a2,2,0,0,0,1.15-.32,1.23,1.23,0,0,0,.49-1,1.15,1.15,0,0,0-.51-1,2,2,0,0,0-1.16-.32H8Z"/><path class="cls-1" d="M16.22,2a1.94,1.94,0,0,1,.61,1.32h-.19a1.74,1.74,0,0,0-.54-1.18,1.86,1.86,0,0,0-1.29-.42,2.25,2.25,0,0,0-1.26.3A1,1,0,0,0,13,3a1,1,0,0,0,.63.88,7.67,7.67,0,0,0,1.18.38,5.35,5.35,0,0,1,1.46.53A1.32,1.32,0,0,1,17,6a1.3,1.3,0,0,1-.62,1.13,2.63,2.63,0,0,1-1.48.39A2.19,2.19,0,0,1,13.38,7a2.13,2.13,0,0,1-.67-1.52h.18a1.94,1.94,0,0,0,.62,1.38,2,2,0,0,0,1.34.43,2.43,2.43,0,0,0,1.37-.36,1.13,1.13,0,0,0,.54-1,1.15,1.15,0,0,0-.62-1,5.52,5.52,0,0,0-1.36-.48A7.09,7.09,0,0,1,13.49,4a1.11,1.11,0,0,1-.66-1,1.21,1.21,0,0,1,.61-1.1,2.48,2.48,0,0,1,1.36-.34A2,2,0,0,1,16.22,2Z"/><path class="cls-1" d="M23.25,3.49a1.51,1.51,0,0,1,.54,1.07H23.6a1.37,1.37,0,0,0-.47-.93,1.63,1.63,0,0,0-1-.31,1.43,1.43,0,0,0-1.21.59,2.29,2.29,0,0,0-.43,1.45,2.21,2.21,0,0,0,.41,1.39,1.48,1.48,0,0,0,1.22.54,1.43,1.43,0,0,0,1.53-1.36h.19a1.92,1.92,0,0,1-.56,1.15,1.68,1.68,0,0,1-1.16.4,1.64,1.64,0,0,1-1.37-.62,2.34,2.34,0,0,1-.45-1.5,2.49,2.49,0,0,1,.47-1.57,1.61,1.61,0,0,1,1.36-.66A1.8,1.8,0,0,1,23.25,3.49Z"/><path class="cls-1" d="M27.53,3.61a1.61,1.61,0,0,1,.35,1.09V7.38h-.19v-1a2.55,2.55,0,0,1-.7.7,2.21,2.21,0,0,1-1.19.37,1.48,1.48,0,0,1-.94-.29,1,1,0,0,1-.39-.81,1.1,1.1,0,0,1,.61-1,3,3,0,0,1,1.47-.29h1.15v-.3a1.25,1.25,0,0,0-1.4-1.42,1.68,1.68,0,0,0-1,.26,1.17,1.17,0,0,0-.53.78l-.18,0a1.36,1.36,0,0,1,.58-.9,1.82,1.82,0,0,1,1.1-.3A1.54,1.54,0,0,1,27.53,3.61Zm-1,1.64c-1.26,0-1.89.38-1.89,1.15a.78.78,0,0,0,.32.66,1.38,1.38,0,0,0,.85.24,2,2,0,0,0,1.29-.51,1.32,1.32,0,0,0,.58-1V5.25Z"/><path class="cls-1" d="M29.11,1.56V4.33A1.57,1.57,0,0,1,30.7,3.13a1.59,1.59,0,0,1,1.36.68,2.45,2.45,0,0,1,.45,1.5,2.52,2.52,0,0,1-.44,1.51,1.61,1.61,0,0,1-1.37.66,1.58,1.58,0,0,1-1.59-1.18V7.38h-.19V1.56Zm.39,2.35a2.21,2.21,0,0,0-.39,1.37v.11a2.13,2.13,0,0,0,.4,1.34,1.4,1.4,0,0,0,1.19.57,1.46,1.46,0,0,0,1.22-.58,2.33,2.33,0,0,0,.4-1.4,2.25,2.25,0,0,0-.41-1.39,1.42,1.42,0,0,0-1.21-.6A1.4,1.4,0,0,0,29.5,3.91Z"/><path class="cls-1" d="M33.78,1.56V7.38h-.19V1.56Z"/><path class="cls-1" d="M38.05,3.78a3,3,0,0,1,.45,1.6H35a2.15,2.15,0,0,0,.47,1.39,1.49,1.49,0,0,0,1.19.53,1.55,1.55,0,0,0,1.07-.37,1.76,1.76,0,0,0,.49-.88h.21a2,2,0,0,1-.54,1,1.74,1.74,0,0,1-1.23.45,1.67,1.67,0,0,1-1.35-.61,2.4,2.4,0,0,1-.5-1.58,2.34,2.34,0,0,1,.49-1.51,1.8,1.8,0,0,1,2.78,0Zm-2.59.08A2.11,2.11,0,0,0,35,5.19H38.3c-.09-1.25-.64-1.86-1.66-1.86A1.46,1.46,0,0,0,35.46,3.86Z"/><path class="cls-1" d="M40.08,7.29a1.19,1.19,0,0,1-.6,1.14l-.1-.16a1.11,1.11,0,0,0,.5-.9h-.1a.27.27,0,0,1-.2-.06.26.26,0,0,1-.07-.19.27.27,0,0,1,.06-.21.26.26,0,0,1,.2-.06C40,6.85,40.08,7,40.08,7.29Z"/><path class="cls-1" d="M47.09,3.82a2.37,2.37,0,0,1,.47,1.5,2.42,2.42,0,0,1-.47,1.5,1.83,1.83,0,0,1-2.85,0,2.37,2.37,0,0,1-.47-1.5,2.32,2.32,0,0,1,.47-1.5,1.82,1.82,0,0,1,2.85,0Zm-2.69.11A2.18,2.18,0,0,0,44,5.32a2.17,2.17,0,0,0,.43,1.38,1.53,1.53,0,0,0,1.27.61,1.55,1.55,0,0,0,1.27-.61,2.17,2.17,0,0,0,.43-1.37,2.18,2.18,0,0,0-.43-1.38,1.53,1.53,0,0,0-1.27-.61A1.51,1.51,0,0,0,44.4,3.93Z"/><path class="cls-1" d="M50.69,3.21v.21a2.44,2.44,0,0,0-.66-.1A1.19,1.19,0,0,0,49,4a2.32,2.32,0,0,0-.32,1.22V7.38h-.2V3.25h.2v.92a1.58,1.58,0,0,1,.5-.7A1.32,1.32,0,0,1,50,3.13,2.1,2.1,0,0,1,50.69,3.21Z"/><path class="cls-1" d="M51.82,2a.25.25,0,0,1,.08.18.27.27,0,0,1-.26.26.24.24,0,0,1-.18-.08.23.23,0,0,1-.08-.18A.22.22,0,0,1,51.46,2a.22.22,0,0,1,.18-.08A.23.23,0,0,1,51.82,2Zm-.09,1.27V7.38h-.19V3.25Z"/><path class="cls-1" d="M56.4,4.29v-1h.19V7.05c0,1.34-.6,2-1.79,2a1.83,1.83,0,0,1-1.21-.37,1.5,1.5,0,0,1-.5-1h.19a1.31,1.31,0,0,0,.44.82,1.63,1.63,0,0,0,1.08.33c1.06,0,1.6-.62,1.6-1.83V6.14a1.79,1.79,0,0,1-3,.5,2.25,2.25,0,0,1-.46-1.42,2.23,2.23,0,0,1,.46-1.42,1.78,1.78,0,0,1,3,.5Zm-2.89-.38a2,2,0,0,0-.42,1.3,2,2,0,0,0,.42,1.3,1.62,1.62,0,0,0,2.48,0,2.09,2.09,0,0,0,.42-1.3A2,2,0,0,0,56,3.91a1.61,1.61,0,0,0-2.48,0Z"/><path class="cls-1" d="M58.21,2a.25.25,0,0,1,.08.18.27.27,0,0,1-.26.26.25.25,0,0,1-.18-.08.23.23,0,0,1-.08-.18A.22.22,0,0,1,57.84,2,.22.22,0,0,1,58,1.89.23.23,0,0,1,58.21,2Zm-.09,1.27V7.38h-.19V3.25Z"/><path class="cls-1" d="M62.59,4.85V7.38h-.2V4.85c0-1-.45-1.52-1.33-1.52a1.3,1.3,0,0,0-1,.43,1.64,1.64,0,0,0-.42,1.12v2.5h-.19V3.25h.19v.81a1.55,1.55,0,0,1,.57-.67,1.51,1.51,0,0,1,.86-.25C62.08,3.13,62.59,3.7,62.59,4.85Z"/><path class="cls-1" d="M66.54,3.61a1.61,1.61,0,0,1,.35,1.09V7.38H66.7v-1a2.55,2.55,0,0,1-.7.7,2.21,2.21,0,0,1-1.19.37,1.48,1.48,0,0,1-.94-.29,1,1,0,0,1-.39-.81,1.1,1.1,0,0,1,.61-1,3,3,0,0,1,1.47-.29H66.7v-.3a1.25,1.25,0,0,0-1.4-1.42,1.68,1.68,0,0,0-1,.26,1.17,1.17,0,0,0-.53.78l-.18,0a1.36,1.36,0,0,1,.58-.9,1.82,1.82,0,0,1,1.1-.3A1.54,1.54,0,0,1,66.54,3.61Zm-1,1.64c-1.26,0-1.89.38-1.89,1.15a.78.78,0,0,0,.32.66,1.38,1.38,0,0,0,.85.24,2,2,0,0,0,1.29-.51,1.32,1.32,0,0,0,.58-1V5.25Z"/><path class="cls-1" d="M68.73,3.25h1.18v.19H68.73v3.1a.8.8,0,0,0,.12.5.55.55,0,0,0,.46.14h.51v.19h-.51a.75.75,0,0,1-.62-.22,1,1,0,0,1-.14-.62V3.44h-1V3.25h1V2l.19-.09Z"/><path class="cls-1" d="M73.71,3.78a3,3,0,0,1,.45,1.6H70.63a2.15,2.15,0,0,0,.47,1.39,1.49,1.49,0,0,0,1.19.53,1.55,1.55,0,0,0,1.07-.37,1.76,1.76,0,0,0,.49-.88h.21a2,2,0,0,1-.54,1,1.74,1.74,0,0,1-1.23.45,1.67,1.67,0,0,1-1.35-.61,2.4,2.4,0,0,1-.5-1.58,2.34,2.34,0,0,1,.49-1.51,1.8,1.8,0,0,1,2.78,0Zm-2.59.08a2.11,2.11,0,0,0-.49,1.33H74c-.09-1.25-.64-1.86-1.66-1.86A1.46,1.46,0,0,0,71.12,3.86Z"/><path class="cls-1" d="M78.39,1.56V7.38H78.2V6.32a1.69,1.69,0,0,1-3,.51,2.47,2.47,0,0,1-.44-1.51,2.41,2.41,0,0,1,.45-1.5,1.68,1.68,0,0,1,3,.5V1.56Zm-3,2.37A2.25,2.25,0,0,0,75,5.32a2.28,2.28,0,0,0,.4,1.4,1.44,1.44,0,0,0,1.21.58,1.41,1.41,0,0,0,1.19-.57,2.18,2.18,0,0,0,.4-1.34V5.28a2.27,2.27,0,0,0-.39-1.37,1.52,1.52,0,0,0-2.41,0Z"/><path class="cls-1" d="M82.66,2a.24.24,0,0,1,.08.18.27.27,0,0,1-.26.26.25.25,0,0,1-.18-.08.23.23,0,0,1-.08-.18A.22.22,0,0,1,82.29,2a.22.22,0,0,1,.18-.08A.23.23,0,0,1,82.66,2Zm-.09,1.27V7.38h-.19V3.25Z"/><path class="cls-1" d="M87,4.85V7.38h-.2V4.85c0-1-.45-1.52-1.33-1.52a1.3,1.3,0,0,0-1,.43,1.64,1.64,0,0,0-.42,1.12v2.5H83.9V3.25h.19v.81a1.55,1.55,0,0,1,.57-.67,1.51,1.51,0,0,1,.86-.25C86.53,3.13,87,3.7,87,4.85Z"/><path class="cls-1" d="M94,2a1.94,1.94,0,0,1,.61,1.32h-.19a1.74,1.74,0,0,0-.54-1.18,1.86,1.86,0,0,0-1.3-.42,2.25,2.25,0,0,0-1.26.3,1,1,0,0,0-.51.94,1,1,0,0,0,.63.88,7.65,7.65,0,0,0,1.17.38,5.36,5.36,0,0,1,1.46.53,1.35,1.35,0,0,1,.06,2.31,2.63,2.63,0,0,1-1.48.39A2.18,2.18,0,0,1,91.18,7a2.12,2.12,0,0,1-.67-1.52h.18a1.94,1.94,0,0,0,.62,1.38,2,2,0,0,0,1.34.43A2.43,2.43,0,0,0,94,6.94a1.13,1.13,0,0,0,.54-1,1.15,1.15,0,0,0-.62-1,5.5,5.5,0,0,0-1.36-.48A7.07,7.07,0,0,1,91.29,4a1.12,1.12,0,0,1-.66-1,1.21,1.21,0,0,1,.61-1.1,2.49,2.49,0,0,1,1.36-.34A2,2,0,0,1,94,2Z"/><path class="cls-1" d="M96.13,2a.25.25,0,0,1,.08.18.27.27,0,0,1-.26.26.24.24,0,0,1-.18-.08.23.23,0,0,1-.08-.18A.22.22,0,0,1,95.77,2,.22.22,0,0,1,96,1.89.23.23,0,0,1,96.13,2ZM96,3.25V7.38h-.19V3.25Z"/><path class="cls-1" d="M100.52,4.85V7.38h-.2V4.85c0-1-.45-1.52-1.33-1.52a1.3,1.3,0,0,0-1,.43,1.64,1.64,0,0,0-.42,1.12v2.5h-.19V3.25h.19v.81a1.56,1.56,0,0,1,.57-.67A1.51,1.51,0,0,1,99,3.13C100,3.13,100.52,3.7,100.52,4.85Z"/><path class="cls-1" d="M104.9,4.29v-1h.19V7.05c0,1.34-.6,2-1.79,2a1.83,1.83,0,0,1-1.21-.37,1.5,1.5,0,0,1-.5-1h.19a1.32,1.32,0,0,0,.44.82,1.63,1.63,0,0,0,1.08.33c1.06,0,1.6-.62,1.6-1.83V6.14a1.79,1.79,0,0,1-3,.5,2.25,2.25,0,0,1-.46-1.42,2.23,2.23,0,0,1,.46-1.42,1.65,1.65,0,0,1,1.39-.66A1.66,1.66,0,0,1,104.9,4.29ZM102,3.91a2,2,0,0,0-.42,1.3,2,2,0,0,0,.42,1.3,1.62,1.62,0,0,0,2.48,0,2.09,2.09,0,0,0,.42-1.3,2,2,0,0,0-.42-1.3,1.61,1.61,0,0,0-2.48,0Z"/><path class="cls-1" d="M109,3.61a1.61,1.61,0,0,1,.35,1.09V7.38h-.19v-1a2.55,2.55,0,0,1-.7.7,2.21,2.21,0,0,1-1.19.37,1.48,1.48,0,0,1-.94-.29A1,1,0,0,1,106,6.4a1.1,1.1,0,0,1,.61-1,3,3,0,0,1,1.47-.29h1.15v-.3a1.25,1.25,0,0,0-1.4-1.42,1.68,1.68,0,0,0-1,.26,1.17,1.17,0,0,0-.53.78l-.18,0a1.36,1.36,0,0,1,.58-.9,1.82,1.82,0,0,1,1.1-.3A1.54,1.54,0,0,1,109,3.61Zm-1,1.64c-1.26,0-1.89.38-1.89,1.15a.78.78,0,0,0,.32.66,1.38,1.38,0,0,0,.85.24,2,2,0,0,0,1.29-.51,1.32,1.32,0,0,0,.58-1V5.25Z"/><path class="cls-1" d="M113.58,3.81a2.45,2.45,0,0,1,.45,1.5,2.52,2.52,0,0,1-.44,1.51,1.61,1.61,0,0,1-1.37.66,1.58,1.58,0,0,1-1.59-1.17V9h-.19V3.25h.19V4.32a1.64,1.64,0,0,1,1.59-1.18A1.59,1.59,0,0,1,113.58,3.81Zm-2.55.1a2.2,2.2,0,0,0-.4,1.38v.1A2.17,2.17,0,0,0,111,6.74a1.55,1.55,0,0,0,2.41,0,2.33,2.33,0,0,0,.4-1.4,2.29,2.29,0,0,0-.4-1.39,1.42,1.42,0,0,0-1.21-.6A1.37,1.37,0,0,0,111,3.92Z"/><path class="cls-1" d="M118.07,3.82a2.37,2.37,0,0,1,.47,1.5,2.42,2.42,0,0,1-.47,1.5,1.83,1.83,0,0,1-2.85,0,2.37,2.37,0,0,1-.47-1.5,2.32,2.32,0,0,1,.47-1.5,1.81,1.81,0,0,1,2.85,0Zm-2.69.11a2.18,2.18,0,0,0-.43,1.38,2.17,2.17,0,0,0,.43,1.38,1.53,1.53,0,0,0,1.27.61,1.55,1.55,0,0,0,1.27-.61,2.17,2.17,0,0,0,.43-1.37,2.18,2.18,0,0,0-.43-1.38,1.53,1.53,0,0,0-1.27-.61A1.51,1.51,0,0,0,115.37,3.93Z"/><path class="cls-1" d="M121.67,3.21v.21a2.44,2.44,0,0,0-.66-.1,1.19,1.19,0,0,0-1.06.65,2.34,2.34,0,0,0-.32,1.22V7.38h-.2V3.25h.2v.92a1.6,1.6,0,0,1,.5-.7,1.32,1.32,0,0,1,.9-.33A2.1,2.1,0,0,1,121.67,3.21Z"/><path class="cls-1" d="M125.26,3.78a3,3,0,0,1,.45,1.6h-3.53a2.15,2.15,0,0,0,.47,1.39,1.49,1.49,0,0,0,1.19.53,1.55,1.55,0,0,0,1.07-.37,1.76,1.76,0,0,0,.49-.88h.21a2,2,0,0,1-.54,1,1.74,1.74,0,0,1-1.23.45,1.68,1.68,0,0,1-1.35-.61,2.4,2.4,0,0,1-.5-1.58,2.33,2.33,0,0,1,.49-1.51,1.8,1.8,0,0,1,2.78,0Zm-2.59.08a2.13,2.13,0,0,0-.49,1.33h3.33c-.09-1.25-.64-1.86-1.66-1.86A1.46,1.46,0,0,0,122.67,3.86Z"/><path class="cls-1" d="M127.29,7.29a1.19,1.19,0,0,1-.6,1.14l-.1-.16a1.1,1.1,0,0,0,.5-.9H127a.28.28,0,0,1-.2-.06.27.27,0,0,1-.07-.19.27.27,0,0,1,.06-.21.27.27,0,0,1,.2-.06C127.18,6.85,127.29,7,127.29,7.29Z"/><path class="cls-1" d="M131.71,2a.24.24,0,0,1,.08.18.27.27,0,0,1-.26.26.25.25,0,0,1-.18-.08.23.23,0,0,1-.08-.18.22.22,0,0,1,.08-.18.22.22,0,0,1,.18-.08A.23.23,0,0,1,131.71,2Zm-.09,1.27V7.38h-.19V3.25Z"/><path class="cls-1" d="M135.81,4.38h-.19a1.24,1.24,0,0,0-.38-.76,1.49,1.49,0,0,0-1-.3,1.44,1.44,0,0,0-.87.25.68.68,0,0,0-.35.59.69.69,0,0,0,.4.62,4.07,4.07,0,0,0,.9.32,4.86,4.86,0,0,1,1.09.38.88.88,0,0,1,.5.8c0,.81-.52,1.22-1.56,1.22a1.44,1.44,0,0,1-1.66-1.38h.2a1.27,1.27,0,0,0,.45.93,1.62,1.62,0,0,0,1,.26c.9,0,1.36-.34,1.36-1a.72.72,0,0,0-.44-.66,5.68,5.68,0,0,0-1-.33,4.16,4.16,0,0,1-1-.37.85.85,0,0,1-.46-.76.88.88,0,0,1,.43-.75,1.66,1.66,0,0,1,1-.28A1.38,1.38,0,0,1,135.81,4.38Z"/><path class="cls-1" d="M142.3,3.61a1.62,1.62,0,0,1,.35,1.09V7.38h-.19v-1a2.53,2.53,0,0,1-.7.7,2.21,2.21,0,0,1-1.19.37,1.48,1.48,0,0,1-.94-.29,1,1,0,0,1-.39-.81,1.1,1.1,0,0,1,.61-1,3,3,0,0,1,1.47-.29h1.15v-.3a1.25,1.25,0,0,0-1.4-1.42,1.68,1.68,0,0,0-1,.26,1.16,1.16,0,0,0-.53.78l-.18,0a1.37,1.37,0,0,1,.58-.9,1.83,1.83,0,0,1,1.1-.3A1.54,1.54,0,0,1,142.3,3.61Zm-1,1.64c-1.26,0-1.89.38-1.89,1.15a.78.78,0,0,0,.32.66,1.37,1.37,0,0,0,.85.24,2,2,0,0,0,1.29-.51,1.32,1.32,0,0,0,.58-1V5.25Z"/><path class="cls-1" d="M149.5,4.85V7.38h-.2V4.85c0-1-.45-1.52-1.33-1.52a1.3,1.3,0,0,0-1,.43,1.64,1.64,0,0,0-.42,1.12v2.5h-.19V3.25h.19v.81a1.56,1.56,0,0,1,.57-.67,1.51,1.51,0,0,1,.86-.25C149,3.13,149.5,3.7,149.5,4.85Z"/><path class="cls-1" d="M153.57,3.78a3,3,0,0,1,.45,1.6h-3.53A2.15,2.15,0,0,0,151,6.77a1.49,1.49,0,0,0,1.19.53,1.55,1.55,0,0,0,1.07-.37,1.77,1.77,0,0,0,.49-.88h.21a2,2,0,0,1-.54,1,1.74,1.74,0,0,1-1.23.45,1.68,1.68,0,0,1-1.35-.61,2.4,2.4,0,0,1-.5-1.58,2.34,2.34,0,0,1,.49-1.51,1.8,1.8,0,0,1,2.78,0ZM151,3.86a2.12,2.12,0,0,0-.49,1.33h3.33c-.09-1.25-.64-1.86-1.66-1.86A1.47,1.47,0,0,0,151,3.86Z"/><path class="cls-1" d="M154.56,3.25l1.32,3.83,1.19-3.83h.22l1.19,3.83,1.32-3.83H160l-1.44,4.13h-.2l-1.19-3.83L156,7.38h-.2l-1.44-4.13Z"/><path class="cls-1" d="M163,3.25l1.5,3.88L166,3.25h.22L164.6,7.38h-.22l-1.62-4.13Z"/><path class="cls-1" d="M169.8,3.78a3,3,0,0,1,.45,1.6h-3.53a2.15,2.15,0,0,0,.47,1.39,1.49,1.49,0,0,0,1.19.53,1.55,1.55,0,0,0,1.07-.37,1.77,1.77,0,0,0,.49-.88h.21a2,2,0,0,1-.54,1,1.74,1.74,0,0,1-1.23.45A1.68,1.68,0,0,1,167,6.88a2.4,2.4,0,0,1-.5-1.58A2.33,2.33,0,0,1,167,3.8a1.8,1.8,0,0,1,2.78,0Zm-2.59.08a2.13,2.13,0,0,0-.49,1.33h3.33c-.09-1.25-.64-1.86-1.66-1.86A1.47,1.47,0,0,0,167.21,3.86Z"/><path class="cls-1" d="M174.2,4.85V7.38H174V4.85c0-1-.45-1.52-1.33-1.52a1.3,1.3,0,0,0-1,.43,1.64,1.64,0,0,0-.42,1.12v2.5h-.19V3.25h.19v.81a1.55,1.55,0,0,1,.57-.67,1.51,1.51,0,0,1,.86-.25C173.68,3.13,174.2,3.7,174.2,4.85Z"/><path class="cls-1" d="M176,3.25h1.18v.19H176v3.1a.8.8,0,0,0,.12.5.55.55,0,0,0,.46.14h.51v.19h-.51a.75.75,0,0,1-.62-.22,1,1,0,0,1-.14-.62V3.44h-1V3.25h1V2l.19-.09Z"/><path class="cls-1" d="M178.17,3.25V5.78a1.74,1.74,0,0,0,.31,1.12,1.26,1.26,0,0,0,1,.4,1.35,1.35,0,0,0,1-.43,1.57,1.57,0,0,0,.41-1.12V3.25h.19V7.38h-.19V6.57a1.5,1.5,0,0,1-1.42.92c-1,0-1.53-.58-1.53-1.71V3.25Z"/><path class="cls-1" d="M184.41,3.21v.21a2.44,2.44,0,0,0-.66-.1,1.19,1.19,0,0,0-1.06.65,2.33,2.33,0,0,0-.32,1.22V7.38h-.2V3.25h.2v.92a1.6,1.6,0,0,1,.5-.7,1.32,1.32,0,0,1,.9-.33A2.09,2.09,0,0,1,184.41,3.21Z"/><path class="cls-1" d="M188,3.78a3,3,0,0,1,.45,1.6h-3.53a2.15,2.15,0,0,0,.47,1.39,1.49,1.49,0,0,0,1.19.53,1.55,1.55,0,0,0,1.07-.37,1.76,1.76,0,0,0,.49-.88h.21a2,2,0,0,1-.54,1,1.74,1.74,0,0,1-1.23.45,1.67,1.67,0,0,1-1.35-.61,2.4,2.4,0,0,1-.5-1.58,2.34,2.34,0,0,1,.49-1.51,1.8,1.8,0,0,1,2.78,0Zm-2.59.08a2.11,2.11,0,0,0-.49,1.33h3.33c-.09-1.25-.64-1.86-1.66-1.86A1.46,1.46,0,0,0,185.41,3.86Z"/><path class="cls-1" d="M189.9,6.93a.25.25,0,0,1,.08.18.27.27,0,0,1-.26.26.25.25,0,0,1-.18-.08.23.23,0,0,1-.08-.18.22.22,0,0,1,.08-.18.22.22,0,0,1,.18-.08A.23.23,0,0,1,189.9,6.93Z"/><path class="cls-1" d="M191.49,1.67V4.31h4V1.67h.19V7.38h-.19V4.5h-4V7.38h-.19V1.67Z"/><path class="cls-1" d="M199.81,3.78a3,3,0,0,1,.45,1.6h-3.53a2.15,2.15,0,0,0,.47,1.39,1.49,1.49,0,0,0,1.19.53,1.55,1.55,0,0,0,1.07-.37,1.77,1.77,0,0,0,.49-.88h.21a2,2,0,0,1-.54,1,1.74,1.74,0,0,1-1.23.45A1.68,1.68,0,0,1,197,6.88a2.4,2.4,0,0,1-.5-1.58A2.33,2.33,0,0,1,197,3.8a1.8,1.8,0,0,1,2.78,0Zm-2.59.08a2.13,2.13,0,0,0-.49,1.33h3.33c-.09-1.25-.64-1.86-1.66-1.86A1.47,1.47,0,0,0,197.22,3.86Z"/><path class="cls-1" d="M204,3.61a1.62,1.62,0,0,1,.35,1.09V7.38h-.19v-1a2.54,2.54,0,0,1-.7.7,2.21,2.21,0,0,1-1.19.37,1.48,1.48,0,0,1-.94-.29,1,1,0,0,1-.39-.81,1.1,1.1,0,0,1,.61-1A3,3,0,0,1,203,5.06h1.15v-.3a1.25,1.25,0,0,0-1.4-1.42,1.68,1.68,0,0,0-1,.26,1.16,1.16,0,0,0-.53.78l-.18,0a1.36,1.36,0,0,1,.58-.9,1.83,1.83,0,0,1,1.1-.3A1.54,1.54,0,0,1,204,3.61Zm-1,1.64c-1.26,0-1.89.38-1.89,1.15a.78.78,0,0,0,.32.66,1.37,1.37,0,0,0,.85.24,2,2,0,0,0,1.29-.51,1.32,1.32,0,0,0,.58-1V5.25Z"/><path class="cls-1" d="M208.79,1.56V7.38h-.19V6.32a1.69,1.69,0,0,1-3,.51,2.47,2.47,0,0,1-.44-1.51,2.4,2.4,0,0,1,.45-1.5,1.68,1.68,0,0,1,3,.5V1.56Zm-3,2.37a2.25,2.25,0,0,0-.41,1.39,2.28,2.28,0,0,0,.4,1.4A1.44,1.44,0,0,0,207,7.3a1.41,1.41,0,0,0,1.19-.57,2.18,2.18,0,0,0,.4-1.34V5.28a2.27,2.27,0,0,0-.39-1.37,1.52,1.52,0,0,0-2.41,0Z"/><path class="cls-1" d="M213.08,4.32V3.25h.19V9h-.19V6.32a1.7,1.7,0,0,1-3,.5,2.47,2.47,0,0,1-.44-1.51,2.4,2.4,0,0,1,.45-1.5,1.58,1.58,0,0,1,1.36-.68A1.65,1.65,0,0,1,213.08,4.32Zm-2.8-.39a2.24,2.24,0,0,0-.4,1.39,2.28,2.28,0,0,0,.4,1.4,1.42,1.42,0,0,0,1.21.58,1.44,1.44,0,0,0,1.2-.56,2.23,2.23,0,0,0,.39-1.34v-.1a2.26,2.26,0,0,0-.4-1.37,1.38,1.38,0,0,0-1.19-.59A1.41,1.41,0,0,0,210.28,3.93Z"/><path class="cls-1" d="M214.5,3.25V5.78a1.74,1.74,0,0,0,.31,1.12,1.26,1.26,0,0,0,1,.4,1.35,1.35,0,0,0,1-.43,1.57,1.57,0,0,0,.41-1.12V3.25h.19V7.38h-.19V6.57a1.51,1.51,0,0,1-1.42.92c-1,0-1.53-.58-1.53-1.71V3.25Z"/><path class="cls-1" d="M221.4,3.61a1.62,1.62,0,0,1,.35,1.09V7.38h-.19v-1a2.54,2.54,0,0,1-.7.7,2.21,2.21,0,0,1-1.19.37,1.48,1.48,0,0,1-.94-.29,1,1,0,0,1-.39-.81,1.1,1.1,0,0,1,.61-1,3,3,0,0,1,1.47-.29h1.15v-.3a1.25,1.25,0,0,0-1.4-1.42,1.68,1.68,0,0,0-1,.26,1.16,1.16,0,0,0-.53.78l-.18,0a1.36,1.36,0,0,1,.58-.9,1.83,1.83,0,0,1,1.1-.3A1.54,1.54,0,0,1,221.4,3.61Zm-1,1.64c-1.26,0-1.89.38-1.89,1.15a.78.78,0,0,0,.32.66,1.37,1.37,0,0,0,.85.24A2,2,0,0,0,221,6.79a1.32,1.32,0,0,0,.58-1V5.25Z"/><path class="cls-1" d="M225,3.21v.21a2.44,2.44,0,0,0-.66-.1,1.19,1.19,0,0,0-1.06.65A2.34,2.34,0,0,0,223,5.2V7.38h-.2V3.25h.2v.92a1.6,1.6,0,0,1,.5-.7,1.32,1.32,0,0,1,.9-.33A2.1,2.1,0,0,1,225,3.21Z"/><path class="cls-1" d="M226.4,3.25h1.18v.19H226.4v3.1a.81.81,0,0,0,.12.5.55.55,0,0,0,.46.14h.51v.19H227a.75.75,0,0,1-.62-.22,1,1,0,0,1-.14-.62V3.44h-1V3.25h1V2l.19-.09Z"/><path class="cls-1" d="M231.38,3.78a3,3,0,0,1,.45,1.6H228.3a2.15,2.15,0,0,0,.47,1.39A1.49,1.49,0,0,0,230,7.3,1.55,1.55,0,0,0,231,6.93a1.76,1.76,0,0,0,.49-.88h.21a2,2,0,0,1-.54,1,1.74,1.74,0,0,1-1.23.45,1.67,1.67,0,0,1-1.35-.61,2.4,2.4,0,0,1-.5-1.58,2.34,2.34,0,0,1,.49-1.51,1.8,1.8,0,0,1,2.78,0Zm-2.59.08a2.11,2.11,0,0,0-.49,1.33h3.33c-.09-1.25-.64-1.86-1.66-1.86A1.46,1.46,0,0,0,228.79,3.86Z"/><path class="cls-1" d="M234.88,3.21v.21a2.44,2.44,0,0,0-.66-.1,1.19,1.19,0,0,0-1.06.65,2.33,2.33,0,0,0-.32,1.22V7.38h-.2V3.25h.2v.92a1.6,1.6,0,0,1,.5-.7,1.32,1.32,0,0,1,.9-.33A2.09,2.09,0,0,1,234.88,3.21Z"/><path class="cls-1" d="M238.3,4.38h-.19a1.24,1.24,0,0,0-.38-.76,1.49,1.49,0,0,0-1-.3,1.44,1.44,0,0,0-.87.25.68.68,0,0,0-.35.59.69.69,0,0,0,.4.62,4.09,4.09,0,0,0,.9.32,4.9,4.9,0,0,1,1.09.38.88.88,0,0,1,.5.8c0,.81-.52,1.22-1.56,1.22a1.44,1.44,0,0,1-1.65-1.38h.2a1.28,1.28,0,0,0,.45.93,1.61,1.61,0,0,0,1,.26c.9,0,1.36-.34,1.36-1a.72.72,0,0,0-.44-.66,5.68,5.68,0,0,0-1-.33,4.19,4.19,0,0,1-1-.37.85.85,0,0,1-.46-.76.88.88,0,0,1,.43-.75,1.67,1.67,0,0,1,1-.28A1.38,1.38,0,0,1,238.3,4.38Z"/><path class="cls-1" d="M242.44,2a.25.25,0,0,1,.08.18.27.27,0,0,1-.26.26.25.25,0,0,1-.18-.08.23.23,0,0,1-.08-.18.22.22,0,0,1,.08-.18.22.22,0,0,1,.18-.08A.23.23,0,0,1,242.44,2Zm-.09,1.27V7.38h-.19V3.25Z"/><path class="cls-1" d="M246.83,4.85V7.38h-.2V4.85c0-1-.45-1.52-1.33-1.52a1.3,1.3,0,0,0-1,.43,1.63,1.63,0,0,0-.42,1.12v2.5h-.19V3.25h.19v.81a1.54,1.54,0,0,1,.57-.67,1.51,1.51,0,0,1,.86-.25C246.32,3.13,246.83,3.7,246.83,4.85Z"/><path class="cls-1" d="M253.8,2a1.93,1.93,0,0,1,.61,1.32h-.19a1.74,1.74,0,0,0-.54-1.18,1.86,1.86,0,0,0-1.3-.42,2.25,2.25,0,0,0-1.26.3,1,1,0,0,0-.51.94,1,1,0,0,0,.63.88,7.63,7.63,0,0,0,1.18.38,5.35,5.35,0,0,1,1.46.53A1.32,1.32,0,0,1,254.55,6a1.31,1.31,0,0,1-.62,1.13,2.63,2.63,0,0,1-1.48.39A2.18,2.18,0,0,1,251,7a2.13,2.13,0,0,1-.67-1.52h.18a1.94,1.94,0,0,0,.62,1.38,2,2,0,0,0,1.34.43,2.43,2.43,0,0,0,1.38-.36,1.13,1.13,0,0,0,.54-1,1.15,1.15,0,0,0-.62-1,5.52,5.52,0,0,0-1.36-.48A7.12,7.12,0,0,1,251.07,4a1.12,1.12,0,0,1-.66-1,1.21,1.21,0,0,1,.61-1.1,2.49,2.49,0,0,1,1.36-.34A2,2,0,0,1,253.8,2Z"/><path class="cls-1" d="M255.92,2a.24.24,0,0,1,.08.18.27.27,0,0,1-.26.26.25.25,0,0,1-.18-.08.23.23,0,0,1-.08-.18.22.22,0,0,1,.08-.18.22.22,0,0,1,.18-.08A.23.23,0,0,1,255.92,2Zm-.09,1.27V7.38h-.19V3.25Z"/><path class="cls-1" d="M260.3,4.85V7.38h-.2V4.85c0-1-.45-1.52-1.33-1.52a1.3,1.3,0,0,0-1,.43,1.64,1.64,0,0,0-.42,1.12v2.5h-.19V3.25h.19v.81a1.55,1.55,0,0,1,.57-.67,1.51,1.51,0,0,1,.86-.25C259.79,3.13,260.3,3.7,260.3,4.85Z"/><path class="cls-1" d="M264.68,4.29v-1h.19V7.05c0,1.34-.6,2-1.79,2a1.83,1.83,0,0,1-1.21-.37,1.5,1.5,0,0,1-.5-1h.19a1.32,1.32,0,0,0,.44.82,1.63,1.63,0,0,0,1.08.33c1.06,0,1.6-.62,1.6-1.83V6.14a1.79,1.79,0,0,1-3,.5,2.25,2.25,0,0,1-.46-1.42,2.23,2.23,0,0,1,.46-1.42,1.78,1.78,0,0,1,3,.5Zm-2.89-.38a2,2,0,0,0-.42,1.3,2,2,0,0,0,.42,1.3,1.62,1.62,0,0,0,2.48,0,2.09,2.09,0,0,0,.42-1.3,2,2,0,0,0-.42-1.3,1.61,1.61,0,0,0-2.48,0Z"/><path class="cls-1" d="M268.83,3.61a1.61,1.61,0,0,1,.35,1.09V7.38H269v-1a2.54,2.54,0,0,1-.7.7,2.21,2.21,0,0,1-1.19.37,1.48,1.48,0,0,1-.94-.29,1,1,0,0,1-.39-.81,1.1,1.1,0,0,1,.61-1,3,3,0,0,1,1.47-.29H269v-.3a1.25,1.25,0,0,0-1.4-1.42,1.68,1.68,0,0,0-1,.26,1.16,1.16,0,0,0-.53.78l-.18,0a1.37,1.37,0,0,1,.58-.9,1.83,1.83,0,0,1,1.1-.3A1.54,1.54,0,0,1,268.83,3.61Zm-1,1.64c-1.26,0-1.89.38-1.89,1.15a.78.78,0,0,0,.32.66,1.37,1.37,0,0,0,.85.24,2,2,0,0,0,1.3-.51,1.32,1.32,0,0,0,.58-1V5.25Z"/><path class="cls-1" d="M273.36,3.81a2.45,2.45,0,0,1,.45,1.5,2.52,2.52,0,0,1-.44,1.51,1.61,1.61,0,0,1-1.37.66,1.58,1.58,0,0,1-1.59-1.17V9h-.19V3.25h.19V4.32A1.64,1.64,0,0,1,272,3.13,1.59,1.59,0,0,1,273.36,3.81Zm-2.55.1a2.21,2.21,0,0,0-.4,1.38v.1a2.18,2.18,0,0,0,.39,1.34,1.55,1.55,0,0,0,2.41,0,2.34,2.34,0,0,0,.4-1.4,2.3,2.3,0,0,0-.4-1.39,1.42,1.42,0,0,0-1.21-.6A1.37,1.37,0,0,0,270.81,3.92Z"/><path class="cls-1" d="M277.85,3.82a2.36,2.36,0,0,1,.47,1.5,2.42,2.42,0,0,1-.47,1.5,1.83,1.83,0,0,1-2.85,0,2.37,2.37,0,0,1-.47-1.5,2.32,2.32,0,0,1,.47-1.5,1.82,1.82,0,0,1,2.85,0Zm-2.69.11a2.18,2.18,0,0,0-.43,1.38,2.17,2.17,0,0,0,.43,1.38,1.53,1.53,0,0,0,1.27.61,1.56,1.56,0,0,0,1.27-.61,2.18,2.18,0,0,0,.43-1.37,2.19,2.19,0,0,0-.43-1.38,1.53,1.53,0,0,0-1.27-.61A1.51,1.51,0,0,0,275.16,3.93Z"/><path class="cls-1" d="M281.45,3.21v.21a2.44,2.44,0,0,0-.66-.1,1.19,1.19,0,0,0-1.06.65,2.33,2.33,0,0,0-.32,1.22V7.38h-.2V3.25h.2v.92a1.58,1.58,0,0,1,.5-.7,1.32,1.32,0,0,1,.89-.33A2.1,2.1,0,0,1,281.45,3.21Z"/><path class="cls-1" d="M285,3.78a3,3,0,0,1,.45,1.6H282a2.15,2.15,0,0,0,.47,1.39,1.49,1.49,0,0,0,1.19.53,1.55,1.55,0,0,0,1.07-.37,1.78,1.78,0,0,0,.49-.88h.21a2,2,0,0,1-.54,1,1.74,1.74,0,0,1-1.23.45,1.68,1.68,0,0,1-1.35-.61,2.4,2.4,0,0,1-.5-1.58,2.33,2.33,0,0,1,.49-1.51,1.8,1.8,0,0,1,2.78,0Zm-2.59.08A2.12,2.12,0,0,0,282,5.19h3.33c-.09-1.25-.64-1.86-1.66-1.86A1.47,1.47,0,0,0,282.45,3.86Z"/><path class="cls-1" d="M291.31,1.67v.19h-.66a.7.7,0,0,0-.58.21,1,1,0,0,0-.18.66v.52h1.36v.19H289.9V7.38h-.19V3.44h-1.23V3.25h1.23V2.73a1.14,1.14,0,0,1,.22-.77.89.89,0,0,1,.74-.29Z"/><path class="cls-1" d="M295,3.82a2.36,2.36,0,0,1,.47,1.5,2.42,2.42,0,0,1-.47,1.5,1.83,1.83,0,0,1-2.85,0,2.37,2.37,0,0,1-.47-1.5,2.32,2.32,0,0,1,.47-1.5,1.82,1.82,0,0,1,2.85,0Zm-2.69.11a2.18,2.18,0,0,0-.43,1.38,2.17,2.17,0,0,0,.43,1.38,1.53,1.53,0,0,0,1.27.61,1.56,1.56,0,0,0,1.27-.61,2.18,2.18,0,0,0,.43-1.37,2.19,2.19,0,0,0-.43-1.38,1.53,1.53,0,0,0-1.27-.61A1.51,1.51,0,0,0,292.34,3.93Z"/><path class="cls-1" d="M298.63,3.21v.21a2.44,2.44,0,0,0-.66-.1,1.19,1.19,0,0,0-1.06.65,2.33,2.33,0,0,0-.32,1.22V7.38h-.2V3.25h.2v.92a1.58,1.58,0,0,1,.5-.7,1.32,1.32,0,0,1,.89-.33A2.1,2.1,0,0,1,298.63,3.21Z"/><path class="cls-1" d="M304.59,4.1a1.5,1.5,0,0,1,.52-.7,1.25,1.25,0,0,1,.79-.26,1.3,1.3,0,0,1,1,.39,1.66,1.66,0,0,1,.36,1.15v2.7h-.19V4.68a1.56,1.56,0,0,0-.27-1,1.1,1.1,0,0,0-.91-.37,1.12,1.12,0,0,0-.88.39,1.35,1.35,0,0,0-.35,1v2.7h-.2V4.68c0-.9-.39-1.35-1.18-1.35a1.1,1.1,0,0,0-.88.42,1.5,1.5,0,0,0-.37,1V7.38h-.19V3.25h.19V4a1.3,1.3,0,0,1,1.25-.87A1.21,1.21,0,0,1,304.59,4.1Z"/><path class="cls-1" d="M311.48,3.82a2.36,2.36,0,0,1,.47,1.5,2.42,2.42,0,0,1-.47,1.5,1.83,1.83,0,0,1-2.85,0,2.37,2.37,0,0,1-.47-1.5,2.32,2.32,0,0,1,.47-1.5,1.82,1.82,0,0,1,2.85,0Zm-2.69.11a2.18,2.18,0,0,0-.43,1.38,2.17,2.17,0,0,0,.43,1.38,1.53,1.53,0,0,0,1.27.61,1.56,1.56,0,0,0,1.27-.61,2.18,2.18,0,0,0,.43-1.37,2.19,2.19,0,0,0-.43-1.38,1.53,1.53,0,0,0-1.27-.61A1.51,1.51,0,0,0,308.79,3.93Z"/><path class="cls-1" d="M315.08,3.21v.21a2.44,2.44,0,0,0-.66-.1,1.19,1.19,0,0,0-1.06.65A2.33,2.33,0,0,0,313,5.2V7.38h-.2V3.25h.2v.92a1.58,1.58,0,0,1,.5-.7,1.32,1.32,0,0,1,.89-.33A2.1,2.1,0,0,1,315.08,3.21Z"/><path class="cls-1" d="M318.67,3.78a3,3,0,0,1,.45,1.6h-3.53a2.15,2.15,0,0,0,.47,1.39,1.49,1.49,0,0,0,1.19.53,1.55,1.55,0,0,0,1.07-.37,1.78,1.78,0,0,0,.49-.88H319a2,2,0,0,1-.54,1,1.74,1.74,0,0,1-1.23.45,1.68,1.68,0,0,1-1.35-.61,2.4,2.4,0,0,1-.5-1.58,2.33,2.33,0,0,1,.49-1.51,1.8,1.8,0,0,1,2.78,0Zm-2.59.08a2.12,2.12,0,0,0-.49,1.33h3.33c-.09-1.25-.64-1.86-1.66-1.86A1.47,1.47,0,0,0,316.08,3.86Z"/><path class="cls-1" d="M323.39,3.25h1.18v.19h-1.18v3.1a.8.8,0,0,0,.12.5.55.55,0,0,0,.46.14h.51v.19H324a.75.75,0,0,1-.62-.22,1,1,0,0,1-.14-.62V3.44h-1V3.25h1V2l.19-.09Z"/><path class="cls-1" d="M325.53,1.56V4.13a1.75,1.75,0,0,1,.59-.74,1.45,1.45,0,0,1,.84-.26,1.47,1.47,0,0,1,1.09.4,1.56,1.56,0,0,1,.42,1.16V7.38h-.19V4.69a1.4,1.4,0,0,0-.37-1,1.38,1.38,0,0,0-2,.13,1.63,1.63,0,0,0-.43,1.14V7.38h-.2V1.56Z"/><path class="cls-1" d="M332.42,3.61a1.61,1.61,0,0,1,.35,1.09V7.38h-.19v-1a2.54,2.54,0,0,1-.7.7,2.21,2.21,0,0,1-1.19.37,1.48,1.48,0,0,1-.94-.29,1,1,0,0,1-.39-.81,1.1,1.1,0,0,1,.61-1,3,3,0,0,1,1.47-.29h1.15v-.3a1.25,1.25,0,0,0-1.4-1.42,1.68,1.68,0,0,0-1,.26,1.17,1.17,0,0,0-.53.78l-.18,0a1.36,1.36,0,0,1,.58-.9,1.82,1.82,0,0,1,1.09-.3A1.54,1.54,0,0,1,332.42,3.61Zm-1,1.64c-1.26,0-1.89.38-1.89,1.15a.78.78,0,0,0,.32.66,1.37,1.37,0,0,0,.85.24,2,2,0,0,0,1.3-.51,1.32,1.32,0,0,0,.58-1V5.25Z"/><path class="cls-1" d="M337,4.85V7.38h-.2V4.85c0-1-.45-1.52-1.33-1.52a1.3,1.3,0,0,0-1,.43A1.63,1.63,0,0,0,334,4.88v2.5h-.19V3.25H334v.81a1.55,1.55,0,0,1,.57-.67,1.51,1.51,0,0,1,.86-.25C336.45,3.13,337,3.7,337,4.85Z"/><path class="cls-1" d="M342.15,1.67V7.38H342V1.93a2.84,2.84,0,0,1-1.42.93V2.65a3.08,3.08,0,0,0,.77-.37,3.14,3.14,0,0,0,.65-.62Z"/><path class="cls-1" d="M347.3,1.67v.19h-2.89l-.23,2.46h0a1.55,1.55,0,0,1,.64-.5,1.89,1.89,0,0,1,.78-.17,1.8,1.8,0,0,1,1.32.49,1.92,1.92,0,0,1,.53,1.44A1.9,1.9,0,0,1,347,6.95a1.81,1.81,0,0,1-1.35.54,1.9,1.9,0,0,1-1.21-.39,1.61,1.61,0,0,1-.62-1.19h.2a1.4,1.4,0,0,0,.54,1,1.7,1.7,0,0,0,1.08.35,1.62,1.62,0,0,0,1.21-.5,1.74,1.74,0,0,0,.47-1.23,1.75,1.75,0,0,0-.47-1.3,1.62,1.62,0,0,0-1.18-.44,1.68,1.68,0,0,0-.87.24,1.48,1.48,0,0,0-.61.65H344l.27-3.05Z"/><path class="cls-1" d="M351,3.25,352.48,7,354,3.25h.22L351.92,9h-.22l.68-1.69-1.64-4Z"/><path class="cls-1" d="M357.82,3.78a3,3,0,0,1,.45,1.6h-3.53a2.15,2.15,0,0,0,.47,1.39,1.49,1.49,0,0,0,1.19.53,1.55,1.55,0,0,0,1.07-.37,1.78,1.78,0,0,0,.49-.88h.21a2,2,0,0,1-.54,1,1.74,1.74,0,0,1-1.23.45A1.68,1.68,0,0,1,355,6.88a2.4,2.4,0,0,1-.5-1.58A2.33,2.33,0,0,1,355,3.8a1.8,1.8,0,0,1,2.78,0Zm-2.59.08a2.12,2.12,0,0,0-.49,1.33h3.33c-.09-1.25-.64-1.86-1.66-1.86A1.46,1.46,0,0,0,355.23,3.86Z"/><path class="cls-1" d="M362,3.61a1.61,1.61,0,0,1,.35,1.09V7.38h-.19v-1a2.54,2.54,0,0,1-.7.7,2.21,2.21,0,0,1-1.19.37,1.48,1.48,0,0,1-.94-.29,1,1,0,0,1-.39-.81,1.1,1.1,0,0,1,.61-1A3,3,0,0,1,361,5.06h1.15v-.3a1.25,1.25,0,0,0-1.4-1.42,1.68,1.68,0,0,0-1,.26,1.17,1.17,0,0,0-.53.78l-.18,0a1.36,1.36,0,0,1,.58-.9,1.82,1.82,0,0,1,1.09-.3A1.54,1.54,0,0,1,362,3.61Zm-1,1.64c-1.26,0-1.89.38-1.89,1.15a.78.78,0,0,0,.32.66,1.37,1.37,0,0,0,.85.24,2,2,0,0,0,1.3-.51,1.32,1.32,0,0,0,.58-1V5.25Z"/><path class="cls-1" d="M365.62,3.21v.21a2.44,2.44,0,0,0-.66-.1,1.19,1.19,0,0,0-1.06.65,2.33,2.33,0,0,0-.32,1.22V7.38h-.2V3.25h.2v.92a1.58,1.58,0,0,1,.5-.7,1.32,1.32,0,0,1,.89-.33A2.1,2.1,0,0,1,365.62,3.21Z"/><path class="cls-1" d="M369,4.38h-.19a1.24,1.24,0,0,0-.38-.76,1.49,1.49,0,0,0-1-.3,1.44,1.44,0,0,0-.87.25.67.67,0,0,0,0,1.21,4.07,4.07,0,0,0,.9.32,4.88,4.88,0,0,1,1.09.38.88.88,0,0,1,.5.8c0,.81-.52,1.22-1.56,1.22a1.44,1.44,0,0,1-1.65-1.38h.2a1.27,1.27,0,0,0,.45.93,1.61,1.61,0,0,0,1,.26c.9,0,1.36-.34,1.36-1a.72.72,0,0,0-.44-.66,5.66,5.66,0,0,0-1-.33,4.17,4.17,0,0,1-1-.37.85.85,0,0,1-.46-.76.87.87,0,0,1,.43-.75,1.66,1.66,0,0,1,1-.28A1.38,1.38,0,0,1,369,4.38Z"/><path class="cls-1" d="M375.78,3.82a2.36,2.36,0,0,1,.47,1.5,2.42,2.42,0,0,1-.47,1.5,1.83,1.83,0,0,1-2.85,0,2.37,2.37,0,0,1-.47-1.5,2.32,2.32,0,0,1,.47-1.5,1.81,1.81,0,0,1,2.85,0Zm-2.69.11a2.18,2.18,0,0,0-.43,1.38,2.17,2.17,0,0,0,.43,1.38,1.53,1.53,0,0,0,1.27.61,1.56,1.56,0,0,0,1.27-.61,2.18,2.18,0,0,0,.43-1.37,2.19,2.19,0,0,0-.43-1.38,1.53,1.53,0,0,0-1.27-.61A1.51,1.51,0,0,0,373.08,3.93Z"/><path class="cls-1" d="M379.49,1.67v.19h-.66a.7.7,0,0,0-.58.21,1,1,0,0,0-.18.66v.52h1.36v.19h-1.36V7.38h-.19V3.44h-1.23V3.25h1.23V2.73A1.14,1.14,0,0,1,378.1,2a.89.89,0,0,1,.74-.29Z"/><path class="cls-1" d="M385.86,3.81a2.45,2.45,0,0,1,.45,1.5,2.52,2.52,0,0,1-.44,1.51,1.61,1.61,0,0,1-1.37.66,1.58,1.58,0,0,1-1.59-1.17V9h-.19V3.25h.19V4.32a1.64,1.64,0,0,1,1.59-1.18A1.59,1.59,0,0,1,385.86,3.81Zm-2.55.1a2.21,2.21,0,0,0-.4,1.38v.1a2.18,2.18,0,0,0,.39,1.34,1.55,1.55,0,0,0,2.41,0,2.34,2.34,0,0,0,.4-1.4,2.3,2.3,0,0,0-.4-1.39,1.42,1.42,0,0,0-1.21-.6A1.37,1.37,0,0,0,383.3,3.92Z"/><path class="cls-1" d="M389.43,3.21v.21a2.44,2.44,0,0,0-.66-.1A1.19,1.19,0,0,0,387.7,4a2.33,2.33,0,0,0-.32,1.22V7.38h-.2V3.25h.2v.92a1.58,1.58,0,0,1,.5-.7,1.32,1.32,0,0,1,.89-.33A2.1,2.1,0,0,1,389.43,3.21Z"/><path class="cls-1" d="M393,3.78a3,3,0,0,1,.45,1.6h-3.53a2.15,2.15,0,0,0,.47,1.39,1.49,1.49,0,0,0,1.19.53,1.55,1.55,0,0,0,1.07-.37,1.78,1.78,0,0,0,.49-.88h.21a2,2,0,0,1-.54,1,1.74,1.74,0,0,1-1.23.45,1.68,1.68,0,0,1-1.35-.61,2.4,2.4,0,0,1-.5-1.58,2.33,2.33,0,0,1,.49-1.51,1.8,1.8,0,0,1,2.78,0Zm-2.59.08a2.12,2.12,0,0,0-.49,1.33h3.33c-.09-1.25-.64-1.86-1.66-1.86A1.47,1.47,0,0,0,390.43,3.86Z"/><path class="cls-1" d="M397,4.1a1.5,1.5,0,0,1,.52-.7,1.24,1.24,0,0,1,.79-.26,1.3,1.3,0,0,1,1,.39,1.65,1.65,0,0,1,.36,1.15v2.7h-.19V4.68a1.56,1.56,0,0,0-.27-1,1.1,1.1,0,0,0-.91-.37,1.12,1.12,0,0,0-.88.39,1.35,1.35,0,0,0-.35,1v2.7h-.2V4.68c0-.9-.39-1.35-1.17-1.35a1.1,1.1,0,0,0-.88.42,1.5,1.5,0,0,0-.37,1V7.38h-.19V3.25h.19V4a1.3,1.3,0,0,1,1.25-.87A1.21,1.21,0,0,1,397,4.1Z"/><path class="cls-1" d="M401.3,2a.25.25,0,0,1,.08.18.26.26,0,0,1-.08.18.26.26,0,0,1-.18.08.25.25,0,0,1-.18-.08.23.23,0,0,1-.08-.18.22.22,0,0,1,.08-.18.22.22,0,0,1,.18-.08A.23.23,0,0,1,401.3,2Zm-.09,1.27V7.38H401V3.25Z"/><path class="cls-1" d="M402.74,3.25V5.78A1.74,1.74,0,0,0,403,6.9a1.26,1.26,0,0,0,1,.4,1.35,1.35,0,0,0,1-.43,1.57,1.57,0,0,0,.41-1.12V3.25h.19V7.38h-.19V6.57a1.5,1.5,0,0,1-1.42.92c-1,0-1.53-.58-1.53-1.71V3.25Z"/><path class="cls-1" d="M409.46,4.1a1.5,1.5,0,0,1,.52-.7,1.24,1.24,0,0,1,.79-.26,1.3,1.3,0,0,1,1,.39,1.65,1.65,0,0,1,.36,1.15v2.7H412V4.68a1.56,1.56,0,0,0-.27-1,1.1,1.1,0,0,0-.91-.37,1.12,1.12,0,0,0-.88.39,1.35,1.35,0,0,0-.35,1v2.7h-.2V4.68c0-.9-.39-1.35-1.17-1.35a1.1,1.1,0,0,0-.88.42,1.5,1.5,0,0,0-.37,1V7.38h-.19V3.25h.19V4a1.3,1.3,0,0,1,1.25-.87A1.21,1.21,0,0,1,409.46,4.1Z"/><path class="cls-1" d="M418.77,3.61a1.61,1.61,0,0,1,.35,1.09V7.38h-.19v-1a2.54,2.54,0,0,1-.7.7,2.21,2.21,0,0,1-1.19.37,1.48,1.48,0,0,1-.94-.29,1,1,0,0,1-.39-.81,1.1,1.1,0,0,1,.61-1,3,3,0,0,1,1.47-.29h1.15v-.3a1.25,1.25,0,0,0-1.4-1.42,1.68,1.68,0,0,0-1,.26,1.17,1.17,0,0,0-.53.78l-.18,0a1.36,1.36,0,0,1,.58-.9,1.82,1.82,0,0,1,1.09-.3A1.54,1.54,0,0,1,418.77,3.61Zm-1,1.64c-1.26,0-1.89.38-1.89,1.15a.78.78,0,0,0,.32.66,1.37,1.37,0,0,0,.85.24,2,2,0,0,0,1.3-.51,1.32,1.32,0,0,0,.58-1V5.25Z"/><path class="cls-1" d="M423.3,4.85V7.38h-.2V4.85c0-1-.45-1.52-1.33-1.52a1.3,1.3,0,0,0-1,.43,1.63,1.63,0,0,0-.42,1.12v2.5h-.19V3.25h.19v.81a1.55,1.55,0,0,1,.57-.67,1.51,1.51,0,0,1,.86-.25C422.79,3.13,423.3,3.7,423.3,4.85Z"/><path class="cls-1" d="M427.77,1.56V7.38h-.19V6.32a1.69,1.69,0,0,1-3,.51,2.47,2.47,0,0,1-.44-1.51,2.4,2.4,0,0,1,.45-1.5,1.68,1.68,0,0,1,3,.5V1.56Zm-3,2.37a2.24,2.24,0,0,0-.41,1.39,2.28,2.28,0,0,0,.4,1.4A1.44,1.44,0,0,0,426,7.3a1.41,1.41,0,0,0,1.19-.57,2.18,2.18,0,0,0,.4-1.34V5.28a2.27,2.27,0,0,0-.39-1.37,1.52,1.52,0,0,0-2.41,0Z"/><path class="cls-1" d="M434.34,4.38h-.19a1.24,1.24,0,0,0-.38-.76,1.49,1.49,0,0,0-1-.3,1.44,1.44,0,0,0-.87.25.67.67,0,0,0,0,1.21,4.07,4.07,0,0,0,.9.32,4.88,4.88,0,0,1,1.09.38.88.88,0,0,1,.5.8c0,.81-.52,1.22-1.56,1.22a1.44,1.44,0,0,1-1.65-1.38h.2a1.27,1.27,0,0,0,.45.93,1.61,1.61,0,0,0,1,.26c.9,0,1.36-.34,1.36-1a.72.72,0,0,0-.44-.66,5.66,5.66,0,0,0-1-.33,4.17,4.17,0,0,1-1-.37.85.85,0,0,1-.46-.76.87.87,0,0,1,.43-.75,1.66,1.66,0,0,1,1-.28A1.38,1.38,0,0,1,434.34,4.38Z"/><path class="cls-1" d="M435.45,3.25V5.78a1.74,1.74,0,0,0,.31,1.12,1.26,1.26,0,0,0,1,.4,1.35,1.35,0,0,0,1-.43,1.57,1.57,0,0,0,.41-1.12V3.25h.19V7.38h-.19V6.57a1.5,1.5,0,0,1-1.42.92c-1,0-1.53-.58-1.53-1.71V3.25Z"/><path class="cls-1" d="M442.58,3.81a2.45,2.45,0,0,1,.45,1.5,2.52,2.52,0,0,1-.44,1.51,1.61,1.61,0,0,1-1.37.66,1.58,1.58,0,0,1-1.59-1.17V9h-.19V3.25h.19V4.32a1.64,1.64,0,0,1,1.59-1.18A1.59,1.59,0,0,1,442.58,3.81Zm-2.55.1a2.21,2.21,0,0,0-.4,1.38v.1A2.18,2.18,0,0,0,440,6.74a1.55,1.55,0,0,0,2.41,0,2.34,2.34,0,0,0,.4-1.4,2.3,2.3,0,0,0-.4-1.39,1.42,1.42,0,0,0-1.21-.6A1.37,1.37,0,0,0,440,3.92Z"/><path class="cls-1" d="M446.94,3.78a3,3,0,0,1,.45,1.6h-3.53a2.15,2.15,0,0,0,.47,1.39,1.49,1.49,0,0,0,1.19.53,1.55,1.55,0,0,0,1.07-.37,1.78,1.78,0,0,0,.49-.88h.21a2,2,0,0,1-.54,1,1.74,1.74,0,0,1-1.23.45,1.68,1.68,0,0,1-1.35-.61,2.4,2.4,0,0,1-.5-1.58,2.33,2.33,0,0,1,.49-1.51,1.8,1.8,0,0,1,2.78,0Zm-2.59.08a2.12,2.12,0,0,0-.49,1.33h3.33c-.09-1.25-.64-1.86-1.66-1.86A1.46,1.46,0,0,0,444.35,3.86Z"/><path class="cls-1" d="M450.44,3.21v.21a2.44,2.44,0,0,0-.66-.1,1.19,1.19,0,0,0-1.06.65,2.33,2.33,0,0,0-.32,1.22V7.38h-.2V3.25h.2v.92a1.59,1.59,0,0,1,.5-.7,1.32,1.32,0,0,1,.9-.33A2.1,2.1,0,0,1,450.44,3.21Z"/><path class="cls-1" d="M456.48,3.49A1.51,1.51,0,0,1,457,4.57h-.19a1.37,1.37,0,0,0-.47-.93,1.62,1.62,0,0,0-1-.31,1.43,1.43,0,0,0-1.21.59,2.29,2.29,0,0,0-.43,1.45,2.21,2.21,0,0,0,.41,1.39,1.48,1.48,0,0,0,1.22.54,1.43,1.43,0,0,0,1.53-1.36H457a1.91,1.91,0,0,1-.56,1.15,1.68,1.68,0,0,1-1.16.4,1.64,1.64,0,0,1-1.37-.62,2.34,2.34,0,0,1-.45-1.5A2.49,2.49,0,0,1,454,3.8a1.61,1.61,0,0,1,1.36-.66A1.8,1.8,0,0,1,456.48,3.49Z"/><path class="cls-1" d="M460.75,3.61a1.61,1.61,0,0,1,.35,1.09V7.38h-.19v-1a2.54,2.54,0,0,1-.7.7,2.21,2.21,0,0,1-1.19.37,1.48,1.48,0,0,1-.94-.29,1,1,0,0,1-.39-.81,1.1,1.1,0,0,1,.61-1,3,3,0,0,1,1.47-.29h1.15v-.3a1.25,1.25,0,0,0-1.4-1.42,1.68,1.68,0,0,0-1,.26,1.17,1.17,0,0,0-.53.78l-.18,0a1.36,1.36,0,0,1,.58-.9,1.82,1.82,0,0,1,1.09-.3A1.54,1.54,0,0,1,460.75,3.61Zm-1,1.64c-1.26,0-1.89.38-1.89,1.15a.78.78,0,0,0,.32.66,1.37,1.37,0,0,0,.85.24,2,2,0,0,0,1.3-.51,1.32,1.32,0,0,0,.58-1V5.25Z"/><path class="cls-1" d="M464.4,3.21v.21a2.44,2.44,0,0,0-.66-.1,1.19,1.19,0,0,0-1.06.65,2.33,2.33,0,0,0-.32,1.22V7.38h-.2V3.25h.2v.92a1.59,1.59,0,0,1,.5-.7,1.32,1.32,0,0,1,.9-.33A2.1,2.1,0,0,1,464.4,3.21Z"/><path class="cls-1" d="M467.82,4.38h-.19a1.24,1.24,0,0,0-.38-.76,1.49,1.49,0,0,0-1-.3,1.44,1.44,0,0,0-.87.25.67.67,0,0,0,0,1.21,4.09,4.09,0,0,0,.9.32,4.88,4.88,0,0,1,1.09.38.88.88,0,0,1,.5.8c0,.81-.52,1.22-1.56,1.22a1.44,1.44,0,0,1-1.65-1.38h.2a1.27,1.27,0,0,0,.45.93,1.61,1.61,0,0,0,1,.26c.9,0,1.36-.34,1.36-1a.72.72,0,0,0-.44-.66,5.66,5.66,0,0,0-1-.33,4.17,4.17,0,0,1-1-.37.85.85,0,0,1-.46-.76.87.87,0,0,1,.43-.75,1.66,1.66,0,0,1,1-.28A1.38,1.38,0,0,1,467.82,4.38Z"/><path class="cls-1" d="M473.64,3.21v.21a2.44,2.44,0,0,0-.66-.1,1.19,1.19,0,0,0-1.06.65,2.33,2.33,0,0,0-.32,1.22V7.38h-.2V3.25h.2v.92a1.59,1.59,0,0,1,.5-.7,1.32,1.32,0,0,1,.9-.33A2.1,2.1,0,0,1,473.64,3.21Z"/><path class="cls-1" d="M474.4,3.25V5.78a1.74,1.74,0,0,0,.31,1.12,1.26,1.26,0,0,0,1,.4,1.35,1.35,0,0,0,1-.43,1.57,1.57,0,0,0,.41-1.12V3.25h.19V7.38h-.19V6.57a1.5,1.5,0,0,1-1.42.92c-1,0-1.53-.58-1.53-1.71V3.25Z"/><path class="cls-1" d="M481.53,4.85V7.38h-.2V4.85c0-1-.45-1.52-1.33-1.52a1.3,1.3,0,0,0-1,.43,1.63,1.63,0,0,0-.42,1.12v2.5h-.19V3.25h.19v.81a1.55,1.55,0,0,1,.57-.67,1.51,1.51,0,0,1,.86-.25C481,3.13,481.53,3.7,481.53,4.85Z"/><path class="cls-1" d="M488.39,3.82a2.36,2.36,0,0,1,.47,1.5,2.42,2.42,0,0,1-.47,1.5,1.83,1.83,0,0,1-2.85,0,2.37,2.37,0,0,1-.47-1.5,2.32,2.32,0,0,1,.47-1.5,1.82,1.82,0,0,1,2.85,0Zm-2.69.11a2.18,2.18,0,0,0-.43,1.38,2.17,2.17,0,0,0,.43,1.38A1.53,1.53,0,0,0,487,7.3a1.56,1.56,0,0,0,1.27-.61,2.18,2.18,0,0,0,.43-1.37,2.19,2.19,0,0,0-.43-1.38A1.53,1.53,0,0,0,487,3.33,1.51,1.51,0,0,0,485.7,3.93Z"/><path class="cls-1" d="M492.89,4.85V7.38h-.2V4.85c0-1-.45-1.52-1.33-1.52a1.3,1.3,0,0,0-1,.43,1.63,1.63,0,0,0-.42,1.12v2.5h-.19V3.25h.19v.81a1.55,1.55,0,0,1,.57-.67,1.51,1.51,0,0,1,.86-.25C492.38,3.13,492.89,3.7,492.89,4.85Z"/><path class="cls-1" d="M497,3.78a3,3,0,0,1,.45,1.6h-3.53a2.15,2.15,0,0,0,.47,1.39,1.49,1.49,0,0,0,1.19.53,1.55,1.55,0,0,0,1.07-.37,1.78,1.78,0,0,0,.49-.88h.21a2,2,0,0,1-.54,1,1.74,1.74,0,0,1-1.23.45,1.68,1.68,0,0,1-1.35-.61,2.4,2.4,0,0,1-.5-1.58,2.33,2.33,0,0,1,.49-1.51,1.8,1.8,0,0,1,2.78,0Zm-2.59.08a2.12,2.12,0,0,0-.49,1.33h3.33c-.09-1.25-.64-1.86-1.66-1.86A1.46,1.46,0,0,0,494.37,3.86Z"/><path class="cls-1" d="M502.13,5.21v.19h-4V5.21Z"/><path class="cls-1" d="M505.91,4.38h-.19a1.24,1.24,0,0,0-.38-.76,1.49,1.49,0,0,0-1-.3,1.44,1.44,0,0,0-.87.25.67.67,0,0,0,0,1.21,4.07,4.07,0,0,0,.9.32,4.88,4.88,0,0,1,1.09.38.88.88,0,0,1,.5.8c0,.81-.52,1.22-1.56,1.22a1.44,1.44,0,0,1-1.65-1.38h.2a1.27,1.27,0,0,0,.45.93,1.61,1.61,0,0,0,1,.26c.9,0,1.36-.34,1.36-1a.72.72,0,0,0-.44-.66,5.66,5.66,0,0,0-1-.33,4.17,4.17,0,0,1-1-.37.85.85,0,0,1-.46-.76.87.87,0,0,1,.43-.75,1.66,1.66,0,0,1,1-.28A1.38,1.38,0,0,1,505.91,4.38Z"/><path class="cls-1" d="M507.63,3.25h1.18v.19h-1.18v3.1a.8.8,0,0,0,.12.5.55.55,0,0,0,.46.14h.51v.19h-.51a.75.75,0,0,1-.62-.22,1,1,0,0,1-.14-.62V3.44h-1V3.25h1V2l.19-.09Z"/><path class="cls-1" d="M512.73,3.82a2.36,2.36,0,0,1,.47,1.5,2.42,2.42,0,0,1-.47,1.5,1.83,1.83,0,0,1-2.85,0,2.37,2.37,0,0,1-.47-1.5,2.32,2.32,0,0,1,.47-1.5,1.81,1.81,0,0,1,2.85,0ZM510,3.93a2.18,2.18,0,0,0-.43,1.38A2.17,2.17,0,0,0,510,6.69a1.53,1.53,0,0,0,1.27.61,1.56,1.56,0,0,0,1.27-.61A2.18,2.18,0,0,0,513,5.32a2.19,2.19,0,0,0-.43-1.38,1.53,1.53,0,0,0-1.27-.61A1.51,1.51,0,0,0,510,3.93Z"/><path class="cls-1" d="M517.22,3.81a2.45,2.45,0,0,1,.45,1.5,2.52,2.52,0,0,1-.44,1.51,1.61,1.61,0,0,1-1.37.66,1.58,1.58,0,0,1-1.59-1.17V9h-.19V3.25h.19V4.32a1.64,1.64,0,0,1,1.59-1.18A1.59,1.59,0,0,1,517.22,3.81Zm-2.55.1a2.21,2.21,0,0,0-.4,1.38v.1a2.18,2.18,0,0,0,.39,1.34,1.55,1.55,0,0,0,2.41,0,2.34,2.34,0,0,0,.4-1.4,2.3,2.3,0,0,0-.4-1.39,1.42,1.42,0,0,0-1.21-.6A1.37,1.37,0,0,0,514.67,3.92Z"/><path class="cls-1" d="M11.51,16.38h-.19a1.24,1.24,0,0,0-.38-.76,1.49,1.49,0,0,0-1-.3,1.44,1.44,0,0,0-.87.25.67.67,0,0,0,0,1.21,4.07,4.07,0,0,0,.9.32,4.92,4.92,0,0,1,1.09.38.88.88,0,0,1,.5.8c0,.81-.52,1.22-1.56,1.22a1.44,1.44,0,0,1-1.66-1.38h.2a1.27,1.27,0,0,0,.45.93,1.61,1.61,0,0,0,1,.26c.9,0,1.36-.34,1.36-1a.72.72,0,0,0-.44-.66,5.63,5.63,0,0,0-1-.33,4.16,4.16,0,0,1-1-.37.85.85,0,0,1-.46-.76A.87.87,0,0,1,9,15.41a1.66,1.66,0,0,1,1-.28A1.38,1.38,0,0,1,11.51,16.38Z"/><path class="cls-1" d="M15.45,15.78a3,3,0,0,1,.45,1.6H12.38a2.15,2.15,0,0,0,.47,1.39A1.49,1.49,0,0,0,14,19.3a1.55,1.55,0,0,0,1.07-.37,1.77,1.77,0,0,0,.49-.88h.21a2,2,0,0,1-.54,1,1.74,1.74,0,0,1-1.23.45,1.68,1.68,0,0,1-1.35-.61,2.4,2.4,0,0,1-.5-1.58,2.33,2.33,0,0,1,.49-1.51A1.63,1.63,0,0,1,14,15.13,1.63,1.63,0,0,1,15.45,15.78Zm-2.59.08a2.13,2.13,0,0,0-.49,1.33H15.7c-.09-1.25-.64-1.86-1.66-1.86A1.47,1.47,0,0,0,12.86,15.86Z"/><path class="cls-1" d="M19,15.21v.21a2.45,2.45,0,0,0-.66-.1,1.19,1.19,0,0,0-1.06.65,2.33,2.33,0,0,0-.32,1.22v2.18h-.2V15.25h.2v.92a1.59,1.59,0,0,1,.5-.7,1.32,1.32,0,0,1,.9-.33A2.1,2.1,0,0,1,19,15.21Z"/><path class="cls-1" d="M19.26,15.25l1.5,3.88,1.5-3.88h.22l-1.62,4.13h-.22L19,15.25Z"/><path class="cls-1" d="M23.62,14a.24.24,0,0,1,.08.18.27.27,0,0,1-.26.26.25.25,0,0,1-.18-.08.23.23,0,0,1-.08-.18.27.27,0,0,1,.26-.26A.23.23,0,0,1,23.62,14Zm-.09,1.27v4.13h-.19V15.25Z"/><path class="cls-1" d="M27.68,15.49a1.51,1.51,0,0,1,.54,1.07H28a1.37,1.37,0,0,0-.47-.93,1.62,1.62,0,0,0-1-.31,1.43,1.43,0,0,0-1.21.59,2.29,2.29,0,0,0-.43,1.45,2.21,2.21,0,0,0,.41,1.39,1.48,1.48,0,0,0,1.22.54A1.43,1.43,0,0,0,28,17.94h.19a1.92,1.92,0,0,1-.56,1.15,1.68,1.68,0,0,1-1.16.4,1.64,1.64,0,0,1-1.37-.62,2.33,2.33,0,0,1-.45-1.5,2.48,2.48,0,0,1,.47-1.57,1.61,1.61,0,0,1,1.36-.66A1.8,1.8,0,0,1,27.68,15.49Z"/><path class="cls-1" d="M32.07,15.78a3,3,0,0,1,.45,1.6H29a2.15,2.15,0,0,0,.47,1.39,1.49,1.49,0,0,0,1.19.53,1.55,1.55,0,0,0,1.07-.37,1.76,1.76,0,0,0,.49-.88h.21a2,2,0,0,1-.54,1,1.74,1.74,0,0,1-1.23.45,1.67,1.67,0,0,1-1.35-.61,2.4,2.4,0,0,1-.5-1.58,2.34,2.34,0,0,1,.49-1.51,1.8,1.8,0,0,1,2.78,0Zm-2.59.08A2.11,2.11,0,0,0,29,17.19h3.33c-.09-1.25-.64-1.86-1.66-1.86A1.46,1.46,0,0,0,29.48,15.86Z"/><path class="cls-1" d="M39,15.78a3,3,0,0,1,.45,1.6H35.94a2.15,2.15,0,0,0,.47,1.39,1.49,1.49,0,0,0,1.19.53,1.55,1.55,0,0,0,1.07-.37,1.76,1.76,0,0,0,.49-.88h.21a2,2,0,0,1-.54,1,1.74,1.74,0,0,1-1.23.45,1.68,1.68,0,0,1-1.35-.61,2.4,2.4,0,0,1-.5-1.58,2.33,2.33,0,0,1,.49-1.51,1.8,1.8,0,0,1,2.78,0Zm-2.59.08a2.13,2.13,0,0,0-.49,1.33h3.33c-.09-1.25-.64-1.86-1.66-1.86A1.46,1.46,0,0,0,36.42,15.86Z"/><path class="cls-1" d="M40.2,15.25l1.4,1.81L43,15.25h.25l-1.52,2,1.69,2.17h-.25l-1.57-2-1.57,2h-.25l1.69-2.17-1.53-2Z"/><path class="cls-1" d="M47.12,15.81a2.45,2.45,0,0,1,.45,1.5,2.52,2.52,0,0,1-.44,1.51,1.61,1.61,0,0,1-1.37.66,1.58,1.58,0,0,1-1.59-1.17V21H44V15.25h.19v1.07a1.64,1.64,0,0,1,1.59-1.18A1.59,1.59,0,0,1,47.12,15.81Zm-2.55.1a2.2,2.2,0,0,0-.4,1.38v.1a2.17,2.17,0,0,0,.39,1.34,1.55,1.55,0,0,0,2.41,0,2.33,2.33,0,0,0,.4-1.4,2.29,2.29,0,0,0-.4-1.39,1.42,1.42,0,0,0-1.21-.6A1.37,1.37,0,0,0,44.57,15.92Z"/><path class="cls-1" d="M51.48,15.78a3,3,0,0,1,.45,1.6H48.4a2.15,2.15,0,0,0,.47,1.39,1.49,1.49,0,0,0,1.19.53,1.55,1.55,0,0,0,1.07-.37,1.77,1.77,0,0,0,.49-.88h.21a2,2,0,0,1-.54,1,1.74,1.74,0,0,1-1.23.45,1.68,1.68,0,0,1-1.35-.61,2.4,2.4,0,0,1-.5-1.58,2.33,2.33,0,0,1,.49-1.51,1.8,1.8,0,0,1,2.78,0Zm-2.59.08a2.13,2.13,0,0,0-.49,1.33h3.33c-.09-1.25-.64-1.86-1.66-1.86A1.47,1.47,0,0,0,48.89,15.86Z"/><path class="cls-1" d="M55,15.21v.21a2.45,2.45,0,0,0-.66-.1,1.19,1.19,0,0,0-1.06.65,2.33,2.33,0,0,0-.32,1.22v2.18h-.2V15.25h.2v.92a1.59,1.59,0,0,1,.5-.7,1.32,1.32,0,0,1,.9-.33A2.1,2.1,0,0,1,55,15.21Z"/><path class="cls-1" d="M56.1,14a.25.25,0,0,1,.08.18.27.27,0,0,1-.26.26.25.25,0,0,1-.18-.08.23.23,0,0,1-.08-.18.27.27,0,0,1,.26-.26A.23.23,0,0,1,56.1,14ZM56,15.25v4.13h-.19V15.25Z"/><path class="cls-1" d="M60.37,15.78a3,3,0,0,1,.45,1.6H57.29a2.15,2.15,0,0,0,.47,1.39A1.49,1.49,0,0,0,59,19.3,1.55,1.55,0,0,0,60,18.93a1.76,1.76,0,0,0,.49-.88h.21a2,2,0,0,1-.54,1,1.74,1.74,0,0,1-1.23.45,1.68,1.68,0,0,1-1.35-.61,2.4,2.4,0,0,1-.5-1.58,2.33,2.33,0,0,1,.49-1.51,1.8,1.8,0,0,1,2.78,0Zm-2.59.08a2.13,2.13,0,0,0-.49,1.33h3.33c-.09-1.25-.64-1.86-1.66-1.86A1.46,1.46,0,0,0,57.78,15.86Z"/><path class="cls-1" d="M64.77,16.85v2.53h-.2V16.85c0-1-.45-1.52-1.33-1.52a1.3,1.3,0,0,0-1,.43,1.64,1.64,0,0,0-.42,1.12v2.5h-.19V15.25h.19v.81a1.56,1.56,0,0,1,.57-.67,1.51,1.51,0,0,1,.86-.25C64.25,15.13,64.77,15.7,64.77,16.85Z"/><path class="cls-1" d="M68.63,15.49a1.51,1.51,0,0,1,.54,1.07H69a1.37,1.37,0,0,0-.47-.93,1.62,1.62,0,0,0-1-.31,1.43,1.43,0,0,0-1.21.59,2.29,2.29,0,0,0-.43,1.45,2.21,2.21,0,0,0,.41,1.39,1.48,1.48,0,0,0,1.22.54A1.43,1.43,0,0,0,69,17.94h.19a1.92,1.92,0,0,1-.56,1.15,1.68,1.68,0,0,1-1.16.4,1.64,1.64,0,0,1-1.37-.62,2.33,2.33,0,0,1-.45-1.5,2.48,2.48,0,0,1,.47-1.57,1.61,1.61,0,0,1,1.36-.66A1.8,1.8,0,0,1,68.63,15.49Z"/><path class="cls-1" d="M73,15.78a3,3,0,0,1,.45,1.6H69.94a2.15,2.15,0,0,0,.47,1.39,1.49,1.49,0,0,0,1.19.53,1.55,1.55,0,0,0,1.07-.37,1.76,1.76,0,0,0,.49-.88h.21a2,2,0,0,1-.54,1,1.74,1.74,0,0,1-1.23.45,1.67,1.67,0,0,1-1.35-.61,2.4,2.4,0,0,1-.5-1.58,2.34,2.34,0,0,1,.49-1.51,1.8,1.8,0,0,1,2.78,0Zm-2.59.08a2.11,2.11,0,0,0-.49,1.33h3.33c-.09-1.25-.64-1.86-1.66-1.86A1.46,1.46,0,0,0,70.43,15.86Z"/><path class="cls-1" d="M74.92,18.93a.25.25,0,0,1,.08.18.27.27,0,0,1-.26.26.25.25,0,0,1-.18-.08.23.23,0,0,1-.08-.18.22.22,0,0,1,.08-.18.22.22,0,0,1,.18-.08A.23.23,0,0,1,74.92,18.93Z"/><path class="cls-1" d="M80,13.67v.19H76.51v2.47h3.34v.18H76.51v2.86h-.19V13.67Z"/><path class="cls-1" d="M83.94,15.82a2.37,2.37,0,0,1,.47,1.5,2.42,2.42,0,0,1-.47,1.5,1.83,1.83,0,0,1-2.85,0,2.37,2.37,0,0,1-.47-1.5,2.32,2.32,0,0,1,.47-1.5,1.82,1.82,0,0,1,2.85,0Zm-2.7.11a2.42,2.42,0,0,0,0,2.76,1.54,1.54,0,0,0,1.27.61,1.55,1.55,0,0,0,1.27-.61,2.42,2.42,0,0,0,0-2.76,1.53,1.53,0,0,0-1.27-.61A1.51,1.51,0,0,0,81.25,15.93Z"/><path class="cls-1" d="M87.54,15.21v.21a2.44,2.44,0,0,0-.66-.1,1.19,1.19,0,0,0-1.06.65,2.34,2.34,0,0,0-.32,1.22v2.18h-.2V15.25h.2v.92a1.6,1.6,0,0,1,.5-.7,1.32,1.32,0,0,1,.9-.33A2.1,2.1,0,0,1,87.54,15.21Z"/><path class="cls-1" d="M93.68,15.61A1.61,1.61,0,0,1,94,16.7v2.68h-.19v-1a2.54,2.54,0,0,1-.7.7,2.21,2.21,0,0,1-1.19.37A1.48,1.48,0,0,1,91,19.2a1,1,0,0,1-.39-.81,1.1,1.1,0,0,1,.61-1,3,3,0,0,1,1.47-.29h1.15v-.3a1.25,1.25,0,0,0-1.4-1.42,1.68,1.68,0,0,0-1,.26,1.17,1.17,0,0,0-.53.78l-.18,0a1.36,1.36,0,0,1,.58-.9,1.83,1.83,0,0,1,1.1-.3A1.54,1.54,0,0,1,93.68,15.61Zm-1,1.64c-1.26,0-1.89.38-1.89,1.15a.78.78,0,0,0,.32.66,1.37,1.37,0,0,0,.85.24,2,2,0,0,0,1.29-.51,1.32,1.32,0,0,0,.58-1v-.58Z"/><path class="cls-1" d="M98.5,13.56v5.82h-.19V18.32a1.69,1.69,0,0,1-3,.51,2.47,2.47,0,0,1-.44-1.51,2.4,2.4,0,0,1,.45-1.5,1.68,1.68,0,0,1,3,.5V13.56Zm-3,2.37a2.24,2.24,0,0,0-.41,1.39,2.28,2.28,0,0,0,.4,1.4,1.44,1.44,0,0,0,1.21.58,1.41,1.41,0,0,0,1.19-.57,2.18,2.18,0,0,0,.4-1.34v-.11a2.27,2.27,0,0,0-.39-1.37,1.52,1.52,0,0,0-2.41,0Z"/><path class="cls-1" d="M99.29,15.25l1.5,3.88,1.5-3.88h.22l-1.62,4.13h-.22l-1.62-4.13Z"/><path class="cls-1" d="M106,15.61a1.62,1.62,0,0,1,.35,1.09v2.68h-.19v-1a2.53,2.53,0,0,1-.7.7,2.21,2.21,0,0,1-1.19.37,1.48,1.48,0,0,1-.94-.29,1,1,0,0,1-.39-.81,1.1,1.1,0,0,1,.61-1,3,3,0,0,1,1.47-.29h1.15v-.3a1.25,1.25,0,0,0-1.4-1.42,1.68,1.68,0,0,0-1,.26,1.16,1.16,0,0,0-.53.78l-.18,0a1.37,1.37,0,0,1,.58-.9,1.83,1.83,0,0,1,1.1-.3A1.54,1.54,0,0,1,106,15.61Zm-1,1.64c-1.26,0-1.89.38-1.89,1.15a.78.78,0,0,0,.32.66,1.37,1.37,0,0,0,.85.24,2,2,0,0,0,1.29-.51,1.32,1.32,0,0,0,.58-1v-.58Z"/><path class="cls-1" d="M110.53,16.85v2.53h-.2V16.85c0-1-.45-1.52-1.33-1.52a1.3,1.3,0,0,0-1,.43,1.64,1.64,0,0,0-.42,1.12v2.5h-.19V15.25h.19v.81a1.56,1.56,0,0,1,.57-.67,1.51,1.51,0,0,1,.86-.25C110,15.13,110.53,15.7,110.53,16.85Z"/><path class="cls-1" d="M114.39,15.49a1.51,1.51,0,0,1,.54,1.07h-.19a1.37,1.37,0,0,0-.47-.93,1.62,1.62,0,0,0-1-.31,1.43,1.43,0,0,0-1.21.59,2.29,2.29,0,0,0-.43,1.45,2.21,2.21,0,0,0,.41,1.39,1.48,1.48,0,0,0,1.22.54,1.43,1.43,0,0,0,1.53-1.36h.19a1.92,1.92,0,0,1-.56,1.15,1.68,1.68,0,0,1-1.16.4,1.64,1.64,0,0,1-1.37-.62,2.33,2.33,0,0,1-.45-1.5,2.48,2.48,0,0,1,.47-1.57,1.61,1.61,0,0,1,1.36-.66A1.8,1.8,0,0,1,114.39,15.49Z"/><path class="cls-1" d="M118.78,15.78a3,3,0,0,1,.45,1.6H115.7a2.15,2.15,0,0,0,.47,1.39,1.49,1.49,0,0,0,1.19.53,1.55,1.55,0,0,0,1.07-.37,1.76,1.76,0,0,0,.49-.88h.21a2,2,0,0,1-.54,1,1.74,1.74,0,0,1-1.23.45,1.67,1.67,0,0,1-1.35-.61,2.4,2.4,0,0,1-.5-1.58A2.34,2.34,0,0,1,116,15.8a1.8,1.8,0,0,1,2.78,0Zm-2.59.08a2.11,2.11,0,0,0-.49,1.33H119c-.09-1.25-.64-1.86-1.66-1.86A1.46,1.46,0,0,0,116.19,15.86Z"/><path class="cls-1" d="M123.46,13.56v5.82h-.19V18.32a1.69,1.69,0,0,1-3,.51,2.47,2.47,0,0,1-.44-1.51,2.41,2.41,0,0,1,.45-1.5,1.68,1.68,0,0,1,3,.5V13.56Zm-3,2.37a2.25,2.25,0,0,0-.41,1.39,2.28,2.28,0,0,0,.4,1.4,1.44,1.44,0,0,0,1.21.58,1.41,1.41,0,0,0,1.19-.57,2.18,2.18,0,0,0,.4-1.34v-.11a2.27,2.27,0,0,0-.39-1.37,1.52,1.52,0,0,0-2.41,0Z"/><path class="cls-1" d="M130,15.49a1.52,1.52,0,0,1,.54,1.07h-.19a1.37,1.37,0,0,0-.47-.93,1.62,1.62,0,0,0-1-.31,1.43,1.43,0,0,0-1.21.59,2.29,2.29,0,0,0-.43,1.45,2.21,2.21,0,0,0,.41,1.39,1.48,1.48,0,0,0,1.22.54,1.43,1.43,0,0,0,1.53-1.36h.19a1.92,1.92,0,0,1-.56,1.15,1.68,1.68,0,0,1-1.16.4,1.64,1.64,0,0,1-1.38-.62,2.34,2.34,0,0,1-.45-1.5,2.49,2.49,0,0,1,.47-1.57,1.61,1.61,0,0,1,1.36-.66A1.8,1.8,0,0,1,130,15.49Z"/><path class="cls-1" d="M134.26,15.61a1.61,1.61,0,0,1,.35,1.09v2.68h-.19v-1a2.54,2.54,0,0,1-.7.7,2.21,2.21,0,0,1-1.19.37,1.48,1.48,0,0,1-.94-.29,1,1,0,0,1-.39-.81,1.1,1.1,0,0,1,.61-1,3,3,0,0,1,1.47-.29h1.15v-.3a1.25,1.25,0,0,0-1.4-1.42,1.68,1.68,0,0,0-1,.26,1.17,1.17,0,0,0-.53.78l-.18,0a1.36,1.36,0,0,1,.58-.9,1.83,1.83,0,0,1,1.1-.3A1.54,1.54,0,0,1,134.26,15.61Zm-1,1.64c-1.26,0-1.89.38-1.89,1.15a.78.78,0,0,0,.32.66,1.37,1.37,0,0,0,.85.24,2,2,0,0,0,1.29-.51,1.32,1.32,0,0,0,.58-1v-.58Z"/><path class="cls-1" d="M137.9,15.21v.21a2.44,2.44,0,0,0-.66-.1,1.19,1.19,0,0,0-1.06.65,2.32,2.32,0,0,0-.32,1.22v2.18h-.2V15.25h.2v.92a1.58,1.58,0,0,1,.5-.7,1.32,1.32,0,0,1,.89-.33A2.1,2.1,0,0,1,137.9,15.21Z"/><path class="cls-1" d="M139.24,19.29a1.19,1.19,0,0,1-.6,1.14l-.1-.16a1.1,1.1,0,0,0,.5-.9h-.1a.28.28,0,0,1-.2-.06.26.26,0,0,1-.07-.19.27.27,0,0,1,.06-.21.26.26,0,0,1,.2-.06C139.13,18.85,139.24,19,139.24,19.29Z"/><path class="cls-1" d="M145.92,15.49a1.51,1.51,0,0,1,.54,1.07h-.19a1.37,1.37,0,0,0-.47-.93,1.63,1.63,0,0,0-1-.31,1.43,1.43,0,0,0-1.21.59,2.29,2.29,0,0,0-.43,1.45,2.21,2.21,0,0,0,.41,1.39,1.48,1.48,0,0,0,1.22.54,1.43,1.43,0,0,0,1.53-1.36h.19a1.92,1.92,0,0,1-.56,1.15,1.68,1.68,0,0,1-1.16.4,1.64,1.64,0,0,1-1.37-.62,2.34,2.34,0,0,1-.45-1.5,2.49,2.49,0,0,1,.47-1.57,1.61,1.61,0,0,1,1.36-.66A1.8,1.8,0,0,1,145.92,15.49Z"/><path class="cls-1" d="M150.19,15.61a1.61,1.61,0,0,1,.35,1.09v2.68h-.19v-1a2.55,2.55,0,0,1-.7.7,2.21,2.21,0,0,1-1.19.37,1.48,1.48,0,0,1-.94-.29,1,1,0,0,1-.39-.81,1.1,1.1,0,0,1,.61-1,3,3,0,0,1,1.47-.29h1.15v-.3a1.25,1.25,0,0,0-1.4-1.42,1.68,1.68,0,0,0-1,.26,1.17,1.17,0,0,0-.53.78l-.18,0a1.36,1.36,0,0,1,.58-.9,1.82,1.82,0,0,1,1.1-.3A1.54,1.54,0,0,1,150.19,15.61Zm-1,1.64c-1.26,0-1.89.38-1.89,1.15a.78.78,0,0,0,.32.66,1.38,1.38,0,0,0,.85.24,2,2,0,0,0,1.29-.51,1.32,1.32,0,0,0,.58-1v-.58Z"/><path class="cls-1" d="M151.78,13.56v2.77a1.57,1.57,0,0,1,1.59-1.19,1.59,1.59,0,0,1,1.36.68,2.45,2.45,0,0,1,.45,1.5,2.52,2.52,0,0,1-.44,1.51,1.61,1.61,0,0,1-1.37.66,1.58,1.58,0,0,1-1.59-1.18v1.07h-.19V13.56Zm.39,2.35a2.21,2.21,0,0,0-.39,1.37v.11a2.13,2.13,0,0,0,.4,1.34,1.4,1.4,0,0,0,1.19.57,1.46,1.46,0,0,0,1.22-.58,2.33,2.33,0,0,0,.4-1.4,2.25,2.25,0,0,0-.41-1.39,1.42,1.42,0,0,0-1.21-.6A1.4,1.4,0,0,0,152.17,15.91Z"/><path class="cls-1" d="M156.45,13.56v5.82h-.19V13.56Z"/><path class="cls-1" d="M160.72,15.78a3,3,0,0,1,.45,1.6h-3.53a2.15,2.15,0,0,0,.47,1.39,1.49,1.49,0,0,0,1.19.53,1.55,1.55,0,0,0,1.07-.37,1.76,1.76,0,0,0,.49-.88h.21a2,2,0,0,1-.54,1,1.74,1.74,0,0,1-1.23.45,1.67,1.67,0,0,1-1.35-.61,2.4,2.4,0,0,1-.5-1.58,2.34,2.34,0,0,1,.49-1.51,1.8,1.8,0,0,1,2.78,0Zm-2.59.08a2.11,2.11,0,0,0-.49,1.33H161c-.09-1.25-.64-1.86-1.66-1.86A1.46,1.46,0,0,0,158.13,15.86Z"/><path class="cls-1" d="M165.43,15.25h1.18v.19h-1.18v3.1a.81.81,0,0,0,.12.5.55.55,0,0,0,.46.14h.51v.19H166a.75.75,0,0,1-.62-.22,1,1,0,0,1-.14-.62v-3.1h-1v-.19h1V14l.19-.09Z"/><path class="cls-1" d="M170.53,15.82a2.37,2.37,0,0,1,.47,1.5,2.42,2.42,0,0,1-.47,1.5,1.83,1.83,0,0,1-2.85,0,2.37,2.37,0,0,1-.47-1.5,2.32,2.32,0,0,1,.47-1.5,1.82,1.82,0,0,1,2.85,0Zm-2.69.11a2.42,2.42,0,0,0,0,2.76,1.54,1.54,0,0,0,1.27.61,1.56,1.56,0,0,0,1.27-.61,2.42,2.42,0,0,0,0-2.76,1.53,1.53,0,0,0-1.27-.61A1.51,1.51,0,0,0,167.84,15.93Z"/><path class="cls-1" d="M176.91,13.67v.19h-.66a.7.7,0,0,0-.58.21,1,1,0,0,0-.18.66v.52h1.36v.19h-1.36v3.94h-.19V15.44h-1.23v-.19h1.23v-.52a1.14,1.14,0,0,1,.22-.77.9.9,0,0,1,.74-.29Z"/><path class="cls-1" d="M180.63,15.82a2.37,2.37,0,0,1,.47,1.5,2.42,2.42,0,0,1-.47,1.5,1.83,1.83,0,0,1-2.85,0,2.37,2.37,0,0,1-.47-1.5,2.32,2.32,0,0,1,.47-1.5,1.82,1.82,0,0,1,2.85,0Zm-2.69.11a2.42,2.42,0,0,0,0,2.76,1.54,1.54,0,0,0,1.27.61,1.56,1.56,0,0,0,1.27-.61,2.42,2.42,0,0,0,0-2.76,1.53,1.53,0,0,0-1.27-.61A1.51,1.51,0,0,0,177.93,15.93Z"/><path class="cls-1" d="M184.8,15.49a1.52,1.52,0,0,1,.54,1.07h-.19a1.37,1.37,0,0,0-.47-.93,1.62,1.62,0,0,0-1-.31,1.43,1.43,0,0,0-1.21.59,2.29,2.29,0,0,0-.43,1.45,2.21,2.21,0,0,0,.41,1.39,1.48,1.48,0,0,0,1.22.54,1.43,1.43,0,0,0,1.53-1.36h.19a1.92,1.92,0,0,1-.56,1.15,1.68,1.68,0,0,1-1.16.4,1.64,1.64,0,0,1-1.37-.62,2.34,2.34,0,0,1-.45-1.5,2.49,2.49,0,0,1,.47-1.57,1.61,1.61,0,0,1,1.36-.66A1.8,1.8,0,0,1,184.8,15.49Z"/><path class="cls-1" d="M186.36,15.25v2.54a1.74,1.74,0,0,0,.31,1.12,1.26,1.26,0,0,0,1,.4,1.35,1.35,0,0,0,1-.43,1.57,1.57,0,0,0,.41-1.12v-2.5h.19v4.13h-.19v-.81a1.5,1.5,0,0,1-1.42.92c-1,0-1.53-.58-1.53-1.71V15.25Z"/><path class="cls-1" d="M193.21,16.38H193a1.24,1.24,0,0,0-.38-.76,1.49,1.49,0,0,0-1-.3,1.44,1.44,0,0,0-.87.25.68.68,0,0,0-.35.59.69.69,0,0,0,.4.62,4.06,4.06,0,0,0,.9.32,4.88,4.88,0,0,1,1.09.38.88.88,0,0,1,.5.8c0,.81-.52,1.22-1.56,1.22a1.44,1.44,0,0,1-1.66-1.38h.2a1.27,1.27,0,0,0,.45.93,1.61,1.61,0,0,0,1,.26c.9,0,1.36-.34,1.36-1a.72.72,0,0,0-.44-.66,5.63,5.63,0,0,0-1-.33,4.15,4.15,0,0,1-1-.37.85.85,0,0,1-.46-.76.87.87,0,0,1,.43-.75,1.66,1.66,0,0,1,1-.28A1.38,1.38,0,0,1,193.21,16.38Z"/><path class="cls-1" d="M199.95,15.82a2.37,2.37,0,0,1,.47,1.5,2.42,2.42,0,0,1-.47,1.5,1.83,1.83,0,0,1-2.85,0,2.37,2.37,0,0,1-.47-1.5,2.32,2.32,0,0,1,.47-1.5,1.82,1.82,0,0,1,2.85,0Zm-2.69.11a2.42,2.42,0,0,0,0,2.76,1.53,1.53,0,0,0,1.27.61,1.55,1.55,0,0,0,1.27-.61,2.42,2.42,0,0,0,0-2.76,1.53,1.53,0,0,0-1.27-.61A1.51,1.51,0,0,0,197.25,15.93Z"/><path class="cls-1" d="M204.44,16.85v2.53h-.2V16.85c0-1-.45-1.52-1.33-1.52a1.3,1.3,0,0,0-1,.43,1.63,1.63,0,0,0-.42,1.12v2.5h-.19V15.25h.19v.81a1.54,1.54,0,0,1,.57-.67,1.51,1.51,0,0,1,.86-.25C203.93,15.13,204.44,15.7,204.44,16.85Z"/><path class="cls-1" d="M208.95,15.25h1.18v.19h-1.18v3.1a.81.81,0,0,0,.12.5.55.55,0,0,0,.46.14H210v.19h-.51a.75.75,0,0,1-.62-.22,1,1,0,0,1-.14-.62v-3.1h-1v-.19h1V14l.19-.09Z"/><path class="cls-1" d="M211.09,13.56v2.58a1.75,1.75,0,0,1,.59-.74,1.45,1.45,0,0,1,.84-.26,1.47,1.47,0,0,1,1.09.4,1.56,1.56,0,0,1,.42,1.16v2.69h-.19V16.69a1.39,1.39,0,0,0-.37-1,1.38,1.38,0,0,0-2,.13,1.63,1.63,0,0,0-.43,1.14v2.44h-.2V13.56Z"/><path class="cls-1" d="M218.11,15.78a3,3,0,0,1,.45,1.6H215a2.15,2.15,0,0,0,.47,1.39,1.49,1.49,0,0,0,1.19.53,1.55,1.55,0,0,0,1.07-.37,1.76,1.76,0,0,0,.49-.88h.21a2,2,0,0,1-.54,1,1.74,1.74,0,0,1-1.23.45,1.68,1.68,0,0,1-1.35-.61,2.4,2.4,0,0,1-.5-1.58,2.33,2.33,0,0,1,.49-1.51,1.8,1.8,0,0,1,2.78,0Zm-2.59.08a2.13,2.13,0,0,0-.49,1.33h3.33c-.09-1.25-.64-1.86-1.66-1.86A1.46,1.46,0,0,0,215.52,15.86Z"/><path class="cls-1" d="M225.16,15.81a2.45,2.45,0,0,1,.45,1.5,2.52,2.52,0,0,1-.44,1.51,1.61,1.61,0,0,1-1.37.66,1.58,1.58,0,0,1-1.59-1.17V21H222V15.25h.19v1.07a1.64,1.64,0,0,1,1.59-1.18A1.59,1.59,0,0,1,225.16,15.81Zm-2.55.1a2.21,2.21,0,0,0-.4,1.38v.1a2.18,2.18,0,0,0,.39,1.34,1.55,1.55,0,0,0,2.41,0,2.34,2.34,0,0,0,.4-1.4,2.3,2.3,0,0,0-.4-1.39,1.42,1.42,0,0,0-1.21-.6A1.37,1.37,0,0,0,222.61,15.92Z"/><path class="cls-1" d="M229.52,15.78a3,3,0,0,1,.45,1.6h-3.53a2.15,2.15,0,0,0,.47,1.39,1.49,1.49,0,0,0,1.19.53,1.55,1.55,0,0,0,1.07-.37,1.76,1.76,0,0,0,.49-.88h.21a2,2,0,0,1-.54,1,1.74,1.74,0,0,1-1.23.45,1.67,1.67,0,0,1-1.35-.61,2.4,2.4,0,0,1-.5-1.58,2.34,2.34,0,0,1,.49-1.51,1.8,1.8,0,0,1,2.78,0Zm-2.59.08a2.11,2.11,0,0,0-.49,1.33h3.33c-.09-1.25-.64-1.86-1.66-1.86A1.46,1.46,0,0,0,226.93,15.86Z"/><path class="cls-1" d="M233,15.21v.21a2.44,2.44,0,0,0-.66-.1,1.19,1.19,0,0,0-1.06.65A2.33,2.33,0,0,0,231,17.2v2.18h-.2V15.25h.2v.92a1.6,1.6,0,0,1,.5-.7,1.32,1.32,0,0,1,.9-.33A2.09,2.09,0,0,1,233,15.21Z"/><path class="cls-1" d="M235.94,13.67v.19h-.66a.7.7,0,0,0-.58.21,1,1,0,0,0-.18.66v.52h1.36v.19h-1.36v3.94h-.19V15.44H233.1v-.19h1.23v-.52a1.14,1.14,0,0,1,.22-.77.9.9,0,0,1,.74-.29Z"/><path class="cls-1" d="M239.66,15.82a2.37,2.37,0,0,1,.47,1.5,2.42,2.42,0,0,1-.47,1.5,1.83,1.83,0,0,1-2.85,0,2.37,2.37,0,0,1-.47-1.5,2.32,2.32,0,0,1,.47-1.5,1.82,1.82,0,0,1,2.85,0Zm-2.69.11a2.42,2.42,0,0,0,0,2.76,1.54,1.54,0,0,0,1.27.61,1.56,1.56,0,0,0,1.27-.61,2.42,2.42,0,0,0,0-2.76,1.53,1.53,0,0,0-1.27-.61A1.51,1.51,0,0,0,237,15.93Z"/><path class="cls-1" d="M243.26,15.21v.21a2.44,2.44,0,0,0-.66-.1,1.19,1.19,0,0,0-1.06.65,2.32,2.32,0,0,0-.32,1.22v2.18H241V15.25h.2v.92a1.58,1.58,0,0,1,.5-.7,1.32,1.32,0,0,1,.89-.33A2.1,2.1,0,0,1,243.26,15.21Z"/><path class="cls-1" d="M246.56,16.1a1.5,1.5,0,0,1,.52-.7,1.24,1.24,0,0,1,.79-.26,1.3,1.3,0,0,1,1,.39,1.66,1.66,0,0,1,.36,1.15v2.7h-.19v-2.7a1.57,1.57,0,0,0-.27-1,1.1,1.1,0,0,0-.91-.37,1.12,1.12,0,0,0-.88.39,1.35,1.35,0,0,0-.35,1v2.7h-.2v-2.7c0-.9-.39-1.35-1.18-1.35a1.1,1.1,0,0,0-.88.42,1.5,1.5,0,0,0-.37,1v2.59h-.19V15.25H244V16a1.3,1.3,0,0,1,1.25-.87A1.21,1.21,0,0,1,246.56,16.1Z"/><path class="cls-1" d="M253.2,15.61a1.61,1.61,0,0,1,.35,1.09v2.68h-.19v-1a2.54,2.54,0,0,1-.7.7,2.21,2.21,0,0,1-1.19.37,1.48,1.48,0,0,1-.94-.29,1,1,0,0,1-.39-.81,1.1,1.1,0,0,1,.61-1,3,3,0,0,1,1.47-.29h1.15v-.3a1.25,1.25,0,0,0-1.4-1.42,1.68,1.68,0,0,0-1,.26,1.17,1.17,0,0,0-.53.78l-.18,0a1.36,1.36,0,0,1,.58-.9,1.83,1.83,0,0,1,1.1-.3A1.54,1.54,0,0,1,253.2,15.61Zm-1,1.64c-1.26,0-1.89.38-1.89,1.15a.78.78,0,0,0,.32.66,1.37,1.37,0,0,0,.85.24,2,2,0,0,0,1.29-.51,1.32,1.32,0,0,0,.58-1v-.58Z"/><path class="cls-1" d="M257.73,16.85v2.53h-.2V16.85c0-1-.45-1.52-1.33-1.52a1.3,1.3,0,0,0-1,.43,1.63,1.63,0,0,0-.42,1.12v2.5h-.19V15.25h.19v.81a1.54,1.54,0,0,1,.57-.67,1.51,1.51,0,0,1,.86-.25C257.22,15.13,257.73,15.7,257.73,16.85Z"/><path class="cls-1" d="M261.6,15.49a1.51,1.51,0,0,1,.54,1.07h-.19a1.37,1.37,0,0,0-.47-.93,1.63,1.63,0,0,0-1-.31,1.43,1.43,0,0,0-1.21.59,2.29,2.29,0,0,0-.43,1.45,2.21,2.21,0,0,0,.41,1.39,1.48,1.48,0,0,0,1.22.54A1.43,1.43,0,0,0,262,17.94h.19a1.92,1.92,0,0,1-.56,1.15,1.68,1.68,0,0,1-1.16.4,1.64,1.64,0,0,1-1.37-.62,2.34,2.34,0,0,1-.45-1.5,2.49,2.49,0,0,1,.47-1.57,1.61,1.61,0,0,1,1.36-.66A1.8,1.8,0,0,1,261.6,15.49Z"/><path class="cls-1" d="M266,15.78a3,3,0,0,1,.45,1.6h-3.53a2.15,2.15,0,0,0,.47,1.39,1.49,1.49,0,0,0,1.19.53,1.55,1.55,0,0,0,1.07-.37,1.77,1.77,0,0,0,.49-.88h.21a2,2,0,0,1-.54,1,1.74,1.74,0,0,1-1.23.45,1.68,1.68,0,0,1-1.35-.61,2.4,2.4,0,0,1-.5-1.58,2.33,2.33,0,0,1,.49-1.51,1.8,1.8,0,0,1,2.78,0Zm-2.59.08a2.13,2.13,0,0,0-.49,1.33h3.33c-.09-1.25-.64-1.86-1.66-1.86A1.47,1.47,0,0,0,263.4,15.86Z"/><path class="cls-1" d="M273.06,15.82a2.36,2.36,0,0,1,.47,1.5,2.42,2.42,0,0,1-.47,1.5,1.83,1.83,0,0,1-2.85,0,2.37,2.37,0,0,1-.47-1.5,2.32,2.32,0,0,1,.47-1.5,1.81,1.81,0,0,1,2.85,0Zm-2.69.11a2.42,2.42,0,0,0,0,2.76,1.53,1.53,0,0,0,1.27.61,1.56,1.56,0,0,0,1.27-.61,2.42,2.42,0,0,0,0-2.76,1.53,1.53,0,0,0-1.27-.61A1.51,1.51,0,0,0,270.36,15.93Z"/><path class="cls-1" d="M276.77,13.67v.19h-.66a.7.7,0,0,0-.58.21,1,1,0,0,0-.18.66v.52h1.36v.19h-1.36v3.94h-.19V15.44h-1.23v-.19h1.23v-.52a1.14,1.14,0,0,1,.22-.77.89.89,0,0,1,.74-.29Z"/><path class="cls-1" d="M282.91,15.61a1.61,1.61,0,0,1,.35,1.09v2.68h-.19v-1a2.54,2.54,0,0,1-.7.7,2.21,2.21,0,0,1-1.19.37,1.48,1.48,0,0,1-.94-.29,1,1,0,0,1-.39-.81,1.1,1.1,0,0,1,.61-1,3,3,0,0,1,1.47-.29h1.15v-.3a1.25,1.25,0,0,0-1.4-1.42,1.68,1.68,0,0,0-1,.26,1.17,1.17,0,0,0-.53.78l-.18,0a1.36,1.36,0,0,1,.58-.9,1.82,1.82,0,0,1,1.09-.3A1.54,1.54,0,0,1,282.91,15.61Zm-1,1.64c-1.26,0-1.89.38-1.89,1.15a.78.78,0,0,0,.32.66,1.37,1.37,0,0,0,.85.24,2,2,0,0,0,1.3-.51,1.32,1.32,0,0,0,.58-1v-.58Z"/><path class="cls-1" d="M287.16,16.38H287a1.24,1.24,0,0,0-.38-.76,1.49,1.49,0,0,0-1-.3,1.44,1.44,0,0,0-.87.25.67.67,0,0,0,0,1.21,4.09,4.09,0,0,0,.9.32,4.88,4.88,0,0,1,1.09.38.88.88,0,0,1,.5.8c0,.81-.52,1.22-1.56,1.22a1.44,1.44,0,0,1-1.65-1.38h.2a1.27,1.27,0,0,0,.45.93,1.61,1.61,0,0,0,1,.26c.9,0,1.36-.34,1.36-1a.72.72,0,0,0-.44-.66,5.66,5.66,0,0,0-1-.33,4.17,4.17,0,0,1-1-.37.85.85,0,0,1-.46-.76.87.87,0,0,1,.43-.75,1.66,1.66,0,0,1,1-.28A1.38,1.38,0,0,1,287.16,16.38Z"/><path class="cls-1" d="M290.9,15.49a1.51,1.51,0,0,1,.54,1.07h-.19a1.37,1.37,0,0,0-.47-.93,1.62,1.62,0,0,0-1-.31,1.43,1.43,0,0,0-1.21.59,2.29,2.29,0,0,0-.43,1.45,2.21,2.21,0,0,0,.41,1.39,1.48,1.48,0,0,0,1.22.54,1.43,1.43,0,0,0,1.53-1.36h.19a1.92,1.92,0,0,1-.56,1.15,1.68,1.68,0,0,1-1.16.4,1.64,1.64,0,0,1-1.37-.62,2.34,2.34,0,0,1-.45-1.5,2.48,2.48,0,0,1,.47-1.57,1.6,1.6,0,0,1,1.36-.66A1.8,1.8,0,0,1,290.9,15.49Z"/><path class="cls-1" d="M295.29,15.78a3,3,0,0,1,.45,1.6h-3.53a2.15,2.15,0,0,0,.47,1.39,1.49,1.49,0,0,0,1.19.53,1.55,1.55,0,0,0,1.07-.37,1.78,1.78,0,0,0,.49-.88h.21a2,2,0,0,1-.54,1,1.74,1.74,0,0,1-1.23.45,1.68,1.68,0,0,1-1.35-.61,2.4,2.4,0,0,1-.5-1.58,2.33,2.33,0,0,1,.49-1.51,1.8,1.8,0,0,1,2.78,0Zm-2.59.08a2.12,2.12,0,0,0-.49,1.33h3.33c-.09-1.25-.64-1.86-1.66-1.86A1.47,1.47,0,0,0,292.7,15.86Z"/><path class="cls-1" d="M299.68,16.85v2.53h-.2V16.85c0-1-.45-1.52-1.33-1.52a1.3,1.3,0,0,0-1,.43,1.63,1.63,0,0,0-.42,1.12v2.5h-.19V15.25h.19v.81a1.55,1.55,0,0,1,.57-.67,1.51,1.51,0,0,1,.86-.25C299.17,15.13,299.68,15.7,299.68,16.85Z"/><path class="cls-1" d="M303.59,16.38h-.19a1.24,1.24,0,0,0-.38-.76,1.49,1.49,0,0,0-1-.3,1.44,1.44,0,0,0-.87.25.67.67,0,0,0,0,1.21,4.09,4.09,0,0,0,.9.32,4.88,4.88,0,0,1,1.09.38.88.88,0,0,1,.5.8c0,.81-.52,1.22-1.56,1.22a1.44,1.44,0,0,1-1.65-1.38h.2a1.27,1.27,0,0,0,.45.93,1.61,1.61,0,0,0,1,.26c.9,0,1.36-.34,1.36-1a.72.72,0,0,0-.44-.66,5.66,5.66,0,0,0-1-.33,4.17,4.17,0,0,1-1-.37.85.85,0,0,1-.46-.76.87.87,0,0,1,.43-.75,1.66,1.66,0,0,1,1-.28A1.38,1.38,0,0,1,303.59,16.38Z"/><path class="cls-1" d="M305.07,14a.25.25,0,0,1,.08.18.26.26,0,0,1-.08.18.26.26,0,0,1-.18.08.25.25,0,0,1-.18-.08.23.23,0,0,1-.08-.18.27.27,0,0,1,.26-.26A.23.23,0,0,1,305.07,14ZM305,15.25v4.13h-.19V15.25Z"/><path class="cls-1" d="M309.47,15.82a2.36,2.36,0,0,1,.47,1.5,2.42,2.42,0,0,1-.47,1.5,1.83,1.83,0,0,1-2.85,0,2.37,2.37,0,0,1-.47-1.5,2.32,2.32,0,0,1,.47-1.5,1.82,1.82,0,0,1,2.85,0Zm-2.69.11a2.42,2.42,0,0,0,0,2.76,1.53,1.53,0,0,0,1.27.61,1.56,1.56,0,0,0,1.27-.61,2.42,2.42,0,0,0,0-2.76,1.53,1.53,0,0,0-1.27-.61A1.51,1.51,0,0,0,306.77,15.93Z"/><path class="cls-1" d="M314,16.85v2.53h-.2V16.85c0-1-.45-1.52-1.33-1.52a1.3,1.3,0,0,0-1,.43,1.63,1.63,0,0,0-.42,1.12v2.5h-.19V15.25H311v.81a1.55,1.55,0,0,1,.57-.67,1.51,1.51,0,0,1,.86-.25C313.45,15.13,314,15.7,314,16.85Z"/><path class="cls-1" d="M315.78,19.29a1.19,1.19,0,0,1-.6,1.14l-.1-.16a1.1,1.1,0,0,0,.5-.9h-.1a.27.27,0,0,1-.2-.06.26.26,0,0,1-.07-.19.27.27,0,0,1,.06-.21.26.26,0,0,1,.2-.06C315.67,18.85,315.78,19,315.78,19.29Z"/><path class="cls-1" d="M320.43,15.25h1.18v.19h-1.18v3.1a.8.8,0,0,0,.12.5.55.55,0,0,0,.46.14h.51v.19H321a.75.75,0,0,1-.62-.22,1,1,0,0,1-.14-.62v-3.1h-1v-.19h1V14l.19-.09Z"/><path class="cls-1" d="M325.54,15.82a2.36,2.36,0,0,1,.47,1.5,2.42,2.42,0,0,1-.47,1.5,1.83,1.83,0,0,1-2.85,0,2.37,2.37,0,0,1-.47-1.5,2.32,2.32,0,0,1,.47-1.5,1.81,1.81,0,0,1,2.85,0Zm-2.69.11a2.42,2.42,0,0,0,0,2.76,1.53,1.53,0,0,0,1.27.61,1.56,1.56,0,0,0,1.27-.61,2.42,2.42,0,0,0,0-2.76,1.53,1.53,0,0,0-1.27-.61A1.51,1.51,0,0,0,322.84,15.93Z"/><path class="cls-1" d="M332.7,15.81a2.45,2.45,0,0,1,.45,1.5,2.52,2.52,0,0,1-.44,1.51,1.61,1.61,0,0,1-1.37.66,1.58,1.58,0,0,1-1.59-1.17V21h-.19V15.25h.19v1.07a1.64,1.64,0,0,1,1.59-1.18A1.59,1.59,0,0,1,332.7,15.81Zm-2.55.1a2.21,2.21,0,0,0-.4,1.38v.1a2.18,2.18,0,0,0,.39,1.34,1.55,1.55,0,0,0,2.41,0,2.34,2.34,0,0,0,.4-1.4,2.3,2.3,0,0,0-.4-1.39,1.42,1.42,0,0,0-1.21-.6A1.37,1.37,0,0,0,330.15,15.92Z"/><path class="cls-1" d="M336.27,15.21v.21a2.44,2.44,0,0,0-.66-.1,1.19,1.19,0,0,0-1.06.65,2.33,2.33,0,0,0-.32,1.22v2.18H334V15.25h.2v.92a1.58,1.58,0,0,1,.5-.7,1.32,1.32,0,0,1,.89-.33A2.1,2.1,0,0,1,336.27,15.21Z"/><path class="cls-1" d="M340,15.82a2.36,2.36,0,0,1,.47,1.5,2.42,2.42,0,0,1-.47,1.5,1.83,1.83,0,0,1-2.85,0,2.37,2.37,0,0,1-.47-1.5,2.32,2.32,0,0,1,.47-1.5,1.81,1.81,0,0,1,2.85,0Zm-2.69.11a2.42,2.42,0,0,0,0,2.76,1.53,1.53,0,0,0,1.27.61,1.56,1.56,0,0,0,1.27-.61,2.42,2.42,0,0,0,0-2.76,1.53,1.53,0,0,0-1.27-.61A1.51,1.51,0,0,0,337.3,15.93Z"/><path class="cls-1" d="M341.09,15.25l1.5,3.88,1.5-3.88h.22l-1.62,4.13h-.22l-1.62-4.13Z"/><path class="cls-1" d="M345.45,14a.24.24,0,0,1,.08.18.27.27,0,0,1-.26.26.25.25,0,0,1-.18-.08.23.23,0,0,1-.08-.18.27.27,0,0,1,.26-.26A.23.23,0,0,1,345.45,14Zm-.09,1.27v4.13h-.19V15.25Z"/><path class="cls-1" d="M350.12,13.56v5.82h-.19V18.32a1.69,1.69,0,0,1-3,.51,2.47,2.47,0,0,1-.44-1.51,2.4,2.4,0,0,1,.45-1.5,1.68,1.68,0,0,1,3,.5V13.56Zm-3,2.37a2.25,2.25,0,0,0-.41,1.39,2.28,2.28,0,0,0,.4,1.4,1.44,1.44,0,0,0,1.22.58,1.41,1.41,0,0,0,1.19-.57,2.18,2.18,0,0,0,.4-1.34v-.11a2.27,2.27,0,0,0-.39-1.37,1.52,1.52,0,0,0-2.41,0Z"/><path class="cls-1" d="M354.19,15.78a3,3,0,0,1,.45,1.6h-3.53a2.15,2.15,0,0,0,.47,1.39,1.49,1.49,0,0,0,1.19.53,1.55,1.55,0,0,0,1.07-.37,1.78,1.78,0,0,0,.49-.88h.21a2,2,0,0,1-.54,1,1.74,1.74,0,0,1-1.23.45,1.68,1.68,0,0,1-1.35-.61,2.4,2.4,0,0,1-.5-1.58,2.33,2.33,0,0,1,.49-1.51,1.8,1.8,0,0,1,2.78,0Zm-2.59.08a2.12,2.12,0,0,0-.49,1.33h3.33c-.09-1.25-.64-1.86-1.66-1.86A1.46,1.46,0,0,0,351.6,15.86Z"/><path class="cls-1" d="M361.14,15.78a3,3,0,0,1,.45,1.6h-3.53a2.15,2.15,0,0,0,.47,1.39,1.49,1.49,0,0,0,1.19.53,1.55,1.55,0,0,0,1.07-.37,1.78,1.78,0,0,0,.49-.88h.21a2,2,0,0,1-.54,1,1.74,1.74,0,0,1-1.23.45,1.68,1.68,0,0,1-1.35-.61,2.4,2.4,0,0,1-.5-1.58,2.33,2.33,0,0,1,.49-1.51,1.8,1.8,0,0,1,2.78,0Zm-2.59.08a2.12,2.12,0,0,0-.49,1.33h3.33c-.09-1.25-.64-1.86-1.66-1.86A1.47,1.47,0,0,0,358.54,15.86Z"/><path class="cls-1" d="M364.74,13.67v.19h-.66a.7.7,0,0,0-.58.21,1,1,0,0,0-.18.66v.52h2.28v-.52a1.16,1.16,0,0,1,.22-.76.89.89,0,0,1,.74-.3h.65v.19h-.66a.7.7,0,0,0-.58.21,1,1,0,0,0-.18.66v.52h2.51v4.13h-.19V15.44H365.8v3.94h-.19V15.44h-2.28v3.94h-.19V15.44h-1.23v-.19h1.23v-.52a1.14,1.14,0,0,1,.22-.77.89.89,0,0,1,.74-.29Z"/><path class="cls-1" d="M372.38,15.49a1.51,1.51,0,0,1,.54,1.07h-.19a1.37,1.37,0,0,0-.47-.93,1.62,1.62,0,0,0-1-.31,1.43,1.43,0,0,0-1.21.59,2.29,2.29,0,0,0-.43,1.45,2.21,2.21,0,0,0,.41,1.39,1.48,1.48,0,0,0,1.22.54,1.43,1.43,0,0,0,1.53-1.36h.19a1.91,1.91,0,0,1-.56,1.15,1.68,1.68,0,0,1-1.16.4,1.64,1.64,0,0,1-1.37-.62,2.34,2.34,0,0,1-.45-1.5,2.49,2.49,0,0,1,.47-1.57,1.61,1.61,0,0,1,1.36-.66A1.8,1.8,0,0,1,372.38,15.49Z"/><path class="cls-1" d="M374.3,14a.24.24,0,0,1,.08.18.27.27,0,0,1-.26.26.25.25,0,0,1-.18-.08.23.23,0,0,1-.08-.18.27.27,0,0,1,.26-.26A.23.23,0,0,1,374.3,14Zm-.09,1.27v4.13H374V15.25Z"/><path class="cls-1" d="M378.58,15.78a3,3,0,0,1,.45,1.6H375.5a2.15,2.15,0,0,0,.47,1.39,1.49,1.49,0,0,0,1.19.53,1.55,1.55,0,0,0,1.07-.37,1.78,1.78,0,0,0,.49-.88h.21a2,2,0,0,1-.54,1,1.74,1.74,0,0,1-1.23.45,1.68,1.68,0,0,1-1.35-.61,2.4,2.4,0,0,1-.5-1.58,2.33,2.33,0,0,1,.49-1.51,1.8,1.8,0,0,1,2.78,0Zm-2.59.08a2.12,2.12,0,0,0-.49,1.33h3.33c-.09-1.25-.64-1.86-1.66-1.86A1.47,1.47,0,0,0,376,15.86Z"/><path class="cls-1" d="M383,16.85v2.53h-.2V16.85c0-1-.45-1.52-1.33-1.52a1.3,1.3,0,0,0-1,.43,1.63,1.63,0,0,0-.42,1.12v2.5h-.19V15.25H380v.81a1.55,1.55,0,0,1,.57-.67,1.51,1.51,0,0,1,.86-.25C382.46,15.13,383,15.7,383,16.85Z"/><path class="cls-1" d="M384.81,15.25H386v.19h-1.18v3.1a.8.8,0,0,0,.12.5.55.55,0,0,0,.46.14h.51v.19h-.51a.75.75,0,0,1-.62-.22,1,1,0,0,1-.14-.62v-3.1h-1v-.19h1V14l.19-.09Z"/><path class="cls-1" d="M392.28,16.38h-.19a1.24,1.24,0,0,0-.38-.76,1.49,1.49,0,0,0-1-.3,1.44,1.44,0,0,0-.87.25.67.67,0,0,0,0,1.21,4.09,4.09,0,0,0,.9.32,4.88,4.88,0,0,1,1.09.38.88.88,0,0,1,.5.8c0,.81-.52,1.22-1.56,1.22a1.44,1.44,0,0,1-1.65-1.38h.2a1.27,1.27,0,0,0,.45.93,1.61,1.61,0,0,0,1,.26c.9,0,1.36-.34,1.36-1a.72.72,0,0,0-.44-.66,5.66,5.66,0,0,0-1-.33,4.17,4.17,0,0,1-1-.37.85.85,0,0,1-.46-.76.87.87,0,0,1,.43-.75,1.66,1.66,0,0,1,1-.28A1.38,1.38,0,0,1,392.28,16.38Z"/><path class="cls-1" d="M396.35,15.82a2.36,2.36,0,0,1,.47,1.5,2.42,2.42,0,0,1-.47,1.5,1.83,1.83,0,0,1-2.85,0,2.37,2.37,0,0,1-.47-1.5,2.32,2.32,0,0,1,.47-1.5,1.81,1.81,0,0,1,2.85,0Zm-2.69.11a2.42,2.42,0,0,0,0,2.76,1.53,1.53,0,0,0,1.27.61,1.56,1.56,0,0,0,1.27-.61,2.42,2.42,0,0,0,0-2.76,1.53,1.53,0,0,0-1.27-.61A1.51,1.51,0,0,0,393.66,15.93Z"/><path class="cls-1" d="M398.1,13.56v5.82h-.19V13.56Z"/><path class="cls-1" d="M399.53,15.25v2.54a1.74,1.74,0,0,0,.31,1.12,1.26,1.26,0,0,0,1,.4,1.35,1.35,0,0,0,1-.43,1.57,1.57,0,0,0,.41-1.12v-2.5h.19v4.13h-.19v-.81a1.5,1.5,0,0,1-1.42.92c-1,0-1.53-.58-1.53-1.71V15.25Z"/><path class="cls-1" d="M404.32,15.25h1.18v.19h-1.18v3.1a.8.8,0,0,0,.12.5.55.55,0,0,0,.46.14h.51v.19h-.51a.75.75,0,0,1-.62-.22,1,1,0,0,1-.14-.62v-3.1h-1v-.19h1V14l.19-.09Z"/><path class="cls-1" d="M406.83,14a.24.24,0,0,1,.08.18.27.27,0,0,1-.26.26.25.25,0,0,1-.18-.08.23.23,0,0,1-.08-.18.27.27,0,0,1,.26-.26A.23.23,0,0,1,406.83,14Zm-.09,1.27v4.13h-.19V15.25Z"/><path class="cls-1" d="M411.23,15.82a2.36,2.36,0,0,1,.47,1.5,2.42,2.42,0,0,1-.47,1.5,1.83,1.83,0,0,1-2.85,0,2.37,2.37,0,0,1-.47-1.5,2.32,2.32,0,0,1,.47-1.5,1.81,1.81,0,0,1,2.85,0Zm-2.69.11a2.42,2.42,0,0,0,0,2.76,1.53,1.53,0,0,0,1.27.61,1.56,1.56,0,0,0,1.27-.61,2.42,2.42,0,0,0,0-2.76,1.53,1.53,0,0,0-1.27-.61A1.51,1.51,0,0,0,408.54,15.93Z"/><path class="cls-1" d="M415.73,16.85v2.53h-.2V16.85c0-1-.45-1.52-1.33-1.52a1.3,1.3,0,0,0-1,.43,1.63,1.63,0,0,0-.42,1.12v2.5h-.19V15.25h.19v.81a1.55,1.55,0,0,1,.57-.67,1.51,1.51,0,0,1,.86-.25C415.21,15.13,415.73,15.7,415.73,16.85Z"/><path class="cls-1" d="M419.63,16.38h-.19a1.24,1.24,0,0,0-.38-.76,1.49,1.49,0,0,0-1-.3,1.44,1.44,0,0,0-.87.25.67.67,0,0,0,0,1.21,4.07,4.07,0,0,0,.9.32,4.88,4.88,0,0,1,1.09.38.88.88,0,0,1,.5.8c0,.81-.52,1.22-1.56,1.22a1.44,1.44,0,0,1-1.65-1.38h.2a1.27,1.27,0,0,0,.45.93,1.61,1.61,0,0,0,1,.26c.9,0,1.36-.34,1.36-1a.72.72,0,0,0-.44-.66,5.66,5.66,0,0,0-1-.33,4.17,4.17,0,0,1-1-.37.85.85,0,0,1-.46-.76.87.87,0,0,1,.43-.75,1.66,1.66,0,0,1,1-.28A1.38,1.38,0,0,1,419.63,16.38Z"/><path class="cls-1" d="M426.12,15.61a1.61,1.61,0,0,1,.35,1.09v2.68h-.19v-1a2.54,2.54,0,0,1-.7.7,2.21,2.21,0,0,1-1.19.37,1.48,1.48,0,0,1-.94-.29,1,1,0,0,1-.39-.81,1.1,1.1,0,0,1,.61-1,3,3,0,0,1,1.47-.29h1.15v-.3a1.25,1.25,0,0,0-1.4-1.42,1.68,1.68,0,0,0-1,.26,1.17,1.17,0,0,0-.53.78l-.18,0a1.36,1.36,0,0,1,.58-.9,1.82,1.82,0,0,1,1.09-.3A1.54,1.54,0,0,1,426.12,15.61Zm-1,1.64c-1.26,0-1.89.38-1.89,1.15a.78.78,0,0,0,.32.66,1.37,1.37,0,0,0,.85.24,2,2,0,0,0,1.3-.51,1.32,1.32,0,0,0,.58-1v-.58Z"/><path class="cls-1" d="M430.65,16.85v2.53h-.2V16.85c0-1-.45-1.52-1.33-1.52a1.3,1.3,0,0,0-1,.43,1.63,1.63,0,0,0-.42,1.12v2.5h-.19V15.25h.19v.81a1.55,1.55,0,0,1,.57-.67,1.51,1.51,0,0,1,.86-.25C430.14,15.13,430.65,15.7,430.65,16.85Z"/><path class="cls-1" d="M435.13,13.56v5.82h-.19V18.32a1.69,1.69,0,0,1-3,.51,2.47,2.47,0,0,1-.44-1.51,2.4,2.4,0,0,1,.45-1.5,1.68,1.68,0,0,1,3,.5V13.56Zm-3,2.37a2.24,2.24,0,0,0-.41,1.39,2.28,2.28,0,0,0,.4,1.4,1.44,1.44,0,0,0,1.22.58,1.41,1.41,0,0,0,1.19-.57,2.18,2.18,0,0,0,.4-1.34v-.11a2.27,2.27,0,0,0-.39-1.37,1.52,1.52,0,0,0-2.41,0Z"/><path class="cls-1" d="M439.4,14a.25.25,0,0,1,.08.18.26.26,0,0,1-.08.18.26.26,0,0,1-.18.08.25.25,0,0,1-.18-.08.23.23,0,0,1-.08-.18.27.27,0,0,1,.26-.26A.23.23,0,0,1,439.4,14Zm-.09,1.27v4.13h-.19V15.25Z"/><path class="cls-1" d="M443.37,16.1a1.5,1.5,0,0,1,.52-.7,1.24,1.24,0,0,1,.79-.26,1.3,1.3,0,0,1,1,.39,1.65,1.65,0,0,1,.36,1.15v2.7h-.19v-2.7a1.56,1.56,0,0,0-.27-1,1.1,1.1,0,0,0-.91-.37,1.12,1.12,0,0,0-.88.39,1.35,1.35,0,0,0-.35,1v2.7h-.2v-2.7c0-.9-.39-1.35-1.17-1.35a1.1,1.1,0,0,0-.88.42,1.5,1.5,0,0,0-.37,1v2.59h-.19V15.25h.19V16a1.3,1.3,0,0,1,1.25-.87A1.21,1.21,0,0,1,443.37,16.1Z"/><path class="cls-1" d="M450.24,15.81a2.45,2.45,0,0,1,.45,1.5,2.52,2.52,0,0,1-.44,1.51,1.61,1.61,0,0,1-1.37.66,1.58,1.58,0,0,1-1.59-1.17V21h-.19V15.25h.19v1.07a1.64,1.64,0,0,1,1.59-1.18A1.59,1.59,0,0,1,450.24,15.81Zm-2.55.1a2.21,2.21,0,0,0-.4,1.38v.1a2.18,2.18,0,0,0,.39,1.34,1.55,1.55,0,0,0,2.41,0,2.34,2.34,0,0,0,.4-1.4,2.3,2.3,0,0,0-.4-1.39,1.42,1.42,0,0,0-1.21-.6A1.37,1.37,0,0,0,447.69,15.92Z"/><path class="cls-1" d="M453.82,15.21v.21a2.44,2.44,0,0,0-.66-.1,1.19,1.19,0,0,0-1.06.65,2.33,2.33,0,0,0-.32,1.22v2.18h-.2V15.25h.2v.92a1.58,1.58,0,0,1,.5-.7,1.32,1.32,0,0,1,.89-.33A2.1,2.1,0,0,1,453.82,15.21Z"/><path class="cls-1" d="M457.54,15.82a2.36,2.36,0,0,1,.47,1.5,2.42,2.42,0,0,1-.47,1.5,1.83,1.83,0,0,1-2.85,0,2.37,2.37,0,0,1-.47-1.5,2.32,2.32,0,0,1,.47-1.5,1.81,1.81,0,0,1,2.85,0Zm-2.69.11a2.42,2.42,0,0,0,0,2.76,1.53,1.53,0,0,0,1.27.61,1.56,1.56,0,0,0,1.27-.61,2.42,2.42,0,0,0,0-2.76,1.53,1.53,0,0,0-1.27-.61A1.51,1.51,0,0,0,454.84,15.93Z"/><path class="cls-1" d="M458.64,15.25l1.5,3.88,1.5-3.88h.22l-1.62,4.13H460l-1.62-4.13Z"/><path class="cls-1" d="M465.46,15.78a3,3,0,0,1,.45,1.6h-3.53a2.15,2.15,0,0,0,.47,1.39,1.49,1.49,0,0,0,1.19.53,1.55,1.55,0,0,0,1.07-.37,1.78,1.78,0,0,0,.49-.88h.21a2,2,0,0,1-.54,1,1.74,1.74,0,0,1-1.23.45,1.68,1.68,0,0,1-1.35-.61,2.4,2.4,0,0,1-.5-1.58,2.33,2.33,0,0,1,.49-1.51,1.8,1.8,0,0,1,2.78,0Zm-2.59.08a2.12,2.12,0,0,0-.49,1.33h3.33c-.09-1.25-.64-1.86-1.66-1.86A1.46,1.46,0,0,0,462.87,15.86Z"/><path class="cls-1" d="M470.14,13.56v5.82h-.19V18.32a1.69,1.69,0,0,1-3,.51,2.47,2.47,0,0,1-.44-1.51,2.4,2.4,0,0,1,.45-1.5,1.68,1.68,0,0,1,3,.5V13.56Zm-3,2.37a2.25,2.25,0,0,0-.41,1.39,2.28,2.28,0,0,0,.4,1.4,1.44,1.44,0,0,0,1.22.58,1.41,1.41,0,0,0,1.19-.57,2.18,2.18,0,0,0,.4-1.34v-.11a2.27,2.27,0,0,0-.39-1.37,1.52,1.52,0,0,0-2.41,0Z"/><path class="cls-1" d="M474.64,15.25h1.18v.19h-1.18v3.1a.8.8,0,0,0,.12.5.55.55,0,0,0,.46.14h.51v.19h-.51a.75.75,0,0,1-.62-.22,1,1,0,0,1-.14-.62v-3.1h-1v-.19h1V14l.19-.09Z"/><path class="cls-1" d="M476.79,13.56v2.58a1.75,1.75,0,0,1,.59-.74,1.45,1.45,0,0,1,.84-.26,1.47,1.47,0,0,1,1.09.4,1.56,1.56,0,0,1,.42,1.16v2.69h-.19V16.69a1.4,1.4,0,0,0-.37-1,1.38,1.38,0,0,0-2,.13,1.63,1.63,0,0,0-.43,1.14v2.44h-.2V13.56Z"/><path class="cls-1" d="M483.8,15.78a3,3,0,0,1,.45,1.6h-3.53a2.15,2.15,0,0,0,.47,1.39,1.49,1.49,0,0,0,1.19.53,1.55,1.55,0,0,0,1.07-.37,1.78,1.78,0,0,0,.49-.88h.21a2,2,0,0,1-.54,1,1.74,1.74,0,0,1-1.23.45,1.68,1.68,0,0,1-1.35-.61,2.4,2.4,0,0,1-.5-1.58A2.33,2.33,0,0,1,481,15.8a1.8,1.8,0,0,1,2.78,0Zm-2.59.08a2.12,2.12,0,0,0-.49,1.33h3.33c-.09-1.25-.64-1.86-1.66-1.86A1.46,1.46,0,0,0,481.21,15.86Z"/><path class="cls-1" d="M490.58,16.38h-.19a1.24,1.24,0,0,0-.38-.76,1.49,1.49,0,0,0-1-.3,1.44,1.44,0,0,0-.87.25.67.67,0,0,0,0,1.21,4.07,4.07,0,0,0,.9.32,4.88,4.88,0,0,1,1.09.38.88.88,0,0,1,.5.8c0,.81-.52,1.22-1.56,1.22a1.44,1.44,0,0,1-1.65-1.38h.2a1.27,1.27,0,0,0,.45.93,1.61,1.61,0,0,0,1,.26c.9,0,1.36-.34,1.36-1a.72.72,0,0,0-.44-.66,5.66,5.66,0,0,0-1-.33,4.17,4.17,0,0,1-1-.37.85.85,0,0,1-.46-.76.87.87,0,0,1,.43-.75,1.66,1.66,0,0,1,1-.28A1.38,1.38,0,0,1,490.58,16.38Z"/><path class="cls-1" d="M494.52,15.78a3,3,0,0,1,.45,1.6h-3.53a2.15,2.15,0,0,0,.47,1.39,1.49,1.49,0,0,0,1.19.53,1.55,1.55,0,0,0,1.07-.37,1.78,1.78,0,0,0,.49-.88h.21a2,2,0,0,1-.54,1,1.74,1.74,0,0,1-1.23.45,1.68,1.68,0,0,1-1.35-.61,2.4,2.4,0,0,1-.5-1.58,2.33,2.33,0,0,1,.49-1.51,1.8,1.8,0,0,1,2.78,0Zm-2.59.08a2.12,2.12,0,0,0-.49,1.33h3.33c-.09-1.25-.64-1.86-1.66-1.86A1.47,1.47,0,0,0,491.93,15.86Z"/><path class="cls-1" d="M498,15.21v.21a2.44,2.44,0,0,0-.66-.1,1.19,1.19,0,0,0-1.06.65A2.33,2.33,0,0,0,496,17.2v2.18h-.2V15.25h.2v.92a1.58,1.58,0,0,1,.5-.7,1.32,1.32,0,0,1,.89-.33A2.1,2.1,0,0,1,498,15.21Z"/><path class="cls-1" d="M498.32,15.25l1.5,3.88,1.5-3.88h.22l-1.62,4.13h-.22l-1.62-4.13Z"/><path class="cls-1" d="M502.68,14a.24.24,0,0,1,.08.18.27.27,0,0,1-.26.26.25.25,0,0,1-.18-.08.23.23,0,0,1-.08-.18.27.27,0,0,1,.26-.26A.23.23,0,0,1,502.68,14Zm-.09,1.27v4.13h-.19V15.25Z"/><path class="cls-1" d="M506.75,15.49a1.51,1.51,0,0,1,.54,1.07h-.19a1.37,1.37,0,0,0-.47-.93,1.62,1.62,0,0,0-1-.31,1.43,1.43,0,0,0-1.21.59,2.29,2.29,0,0,0-.43,1.45,2.21,2.21,0,0,0,.41,1.39,1.48,1.48,0,0,0,1.22.54,1.43,1.43,0,0,0,1.53-1.36h.19a1.92,1.92,0,0,1-.56,1.15,1.68,1.68,0,0,1-1.16.4,1.64,1.64,0,0,1-1.37-.62,2.34,2.34,0,0,1-.45-1.5,2.48,2.48,0,0,1,.47-1.57,1.6,1.6,0,0,1,1.36-.66A1.8,1.8,0,0,1,506.75,15.49Z"/><path class="cls-1" d="M511.14,15.78a3,3,0,0,1,.45,1.6h-3.53a2.15,2.15,0,0,0,.47,1.39,1.49,1.49,0,0,0,1.19.53,1.55,1.55,0,0,0,1.07-.37,1.78,1.78,0,0,0,.49-.88h.21a2,2,0,0,1-.54,1,1.74,1.74,0,0,1-1.23.45,1.68,1.68,0,0,1-1.35-.61,2.4,2.4,0,0,1-.5-1.58,2.33,2.33,0,0,1,.49-1.51,1.8,1.8,0,0,1,2.78,0Zm-2.59.08a2.12,2.12,0,0,0-.49,1.33h3.33c-.09-1.25-.64-1.86-1.66-1.86A1.47,1.47,0,0,0,508.55,15.86Z"/><path class="cls-1" d="M186.68,26a.25.25,0,0,1,.08.18.27.27,0,0,1-.26.26.25.25,0,0,1-.18-.08.23.23,0,0,1-.08-.18.27.27,0,0,1,.26-.26A.23.23,0,0,1,186.68,26Zm-.09,1.27v4.13h-.19V27.25Z"/><path class="cls-1" d="M191.35,25.56v5.82h-.19V30.32a1.69,1.69,0,0,1-3,.51,2.47,2.47,0,0,1-.44-1.51,2.4,2.4,0,0,1,.45-1.5,1.68,1.68,0,0,1,3,.5V25.56Zm-3,2.37a2.24,2.24,0,0,0-.41,1.39,2.28,2.28,0,0,0,.4,1.4,1.44,1.44,0,0,0,1.21.58,1.41,1.41,0,0,0,1.19-.57,2.18,2.18,0,0,0,.4-1.34v-.11a2.27,2.27,0,0,0-.39-1.37,1.52,1.52,0,0,0-2.41,0Z"/><path class="cls-1" d="M195.42,27.78a3,3,0,0,1,.45,1.6h-3.53a2.15,2.15,0,0,0,.47,1.39,1.49,1.49,0,0,0,1.19.53,1.55,1.55,0,0,0,1.07-.37,1.77,1.77,0,0,0,.49-.88h.21a2,2,0,0,1-.54,1,1.74,1.74,0,0,1-1.23.45,1.68,1.68,0,0,1-1.35-.61,2.4,2.4,0,0,1-.5-1.58,2.33,2.33,0,0,1,.49-1.51,1.8,1.8,0,0,1,2.78,0Zm-2.59.08a2.13,2.13,0,0,0-.49,1.33h3.33c-.09-1.25-.64-1.86-1.66-1.86A1.47,1.47,0,0,0,192.83,27.86Z"/><path class="cls-1" d="M199.58,27.61a1.62,1.62,0,0,1,.35,1.09v2.68h-.19v-1a2.54,2.54,0,0,1-.7.7,2.21,2.21,0,0,1-1.19.37,1.48,1.48,0,0,1-.94-.29,1,1,0,0,1-.39-.81,1.1,1.1,0,0,1,.61-1,3,3,0,0,1,1.47-.29h1.15v-.3a1.25,1.25,0,0,0-1.4-1.42,1.68,1.68,0,0,0-1,.26,1.16,1.16,0,0,0-.53.78l-.18,0a1.36,1.36,0,0,1,.58-.9,1.83,1.83,0,0,1,1.1-.3A1.54,1.54,0,0,1,199.58,27.61Zm-1,1.64c-1.26,0-1.89.38-1.89,1.15a.78.78,0,0,0,.32.66,1.37,1.37,0,0,0,.85.24,2,2,0,0,0,1.29-.51,1.32,1.32,0,0,0,.58-1v-.58Z"/><path class="cls-1" d="M206.55,27.61a1.61,1.61,0,0,1,.35,1.09v2.68h-.19v-1a2.55,2.55,0,0,1-.7.7,2.21,2.21,0,0,1-1.19.37,1.48,1.48,0,0,1-.94-.29,1,1,0,0,1-.39-.81,1.1,1.1,0,0,1,.61-1,3,3,0,0,1,1.47-.29h1.15v-.3a1.25,1.25,0,0,0-1.4-1.42,1.68,1.68,0,0,0-1,.26,1.17,1.17,0,0,0-.53.78l-.18,0a1.36,1.36,0,0,1,.58-.9,1.82,1.82,0,0,1,1.1-.3A1.54,1.54,0,0,1,206.55,27.61Zm-1,1.64c-1.26,0-1.89.38-1.89,1.15a.78.78,0,0,0,.32.66,1.38,1.38,0,0,0,.85.24,2,2,0,0,0,1.29-.51,1.32,1.32,0,0,0,.58-1v-.58Z"/><path class="cls-1" d="M211.09,28.85v2.53h-.2V28.85c0-1-.45-1.52-1.33-1.52a1.3,1.3,0,0,0-1,.43,1.63,1.63,0,0,0-.42,1.12v2.5h-.19V27.25h.19v.81a1.54,1.54,0,0,1,.57-.67,1.51,1.51,0,0,1,.86-.25C210.58,27.13,211.09,27.7,211.09,28.85Z"/><path class="cls-1" d="M215.56,25.56v5.82h-.19V30.32a1.69,1.69,0,0,1-3,.51,2.47,2.47,0,0,1-.44-1.51,2.41,2.41,0,0,1,.45-1.5,1.68,1.68,0,0,1,3,.5V25.56Zm-3,2.37a2.25,2.25,0,0,0-.41,1.39,2.28,2.28,0,0,0,.4,1.4,1.44,1.44,0,0,0,1.21.58,1.41,1.41,0,0,0,1.19-.57,2.18,2.18,0,0,0,.4-1.34v-.11a2.27,2.27,0,0,0-.39-1.37,1.52,1.52,0,0,0-2.41,0Z"/><path class="cls-1" d="M220.06,27.25h1.18v.19h-1.18v3.1a.8.8,0,0,0,.12.5.55.55,0,0,0,.46.14h.51v.19h-.51a.75.75,0,0,1-.62-.22,1,1,0,0,1-.14-.62v-3.1h-1v-.19h1V26l.19-.09Z"/><path class="cls-1" d="M222.21,25.56v2.58a1.75,1.75,0,0,1,.59-.74,1.45,1.45,0,0,1,.84-.26,1.47,1.47,0,0,1,1.09.4,1.56,1.56,0,0,1,.42,1.16v2.69H225V28.69a1.39,1.39,0,0,0-.37-1,1.38,1.38,0,0,0-2,.13,1.63,1.63,0,0,0-.43,1.14v2.44H222V25.56Z"/><path class="cls-1" d="M229.22,27.78a3,3,0,0,1,.45,1.6h-3.53a2.15,2.15,0,0,0,.47,1.39,1.49,1.49,0,0,0,1.19.53,1.55,1.55,0,0,0,1.07-.37,1.76,1.76,0,0,0,.49-.88h.21a2,2,0,0,1-.54,1,1.74,1.74,0,0,1-1.23.45,1.68,1.68,0,0,1-1.35-.61,2.4,2.4,0,0,1-.5-1.58,2.33,2.33,0,0,1,.49-1.51,1.8,1.8,0,0,1,2.78,0Zm-2.59.08a2.13,2.13,0,0,0-.49,1.33h3.33c-.09-1.25-.64-1.86-1.66-1.86A1.46,1.46,0,0,0,226.63,27.86Z"/><path class="cls-1" d="M233.71,26a.25.25,0,0,1,.08.18.27.27,0,0,1-.26.26.25.25,0,0,1-.18-.08.23.23,0,0,1-.08-.18.27.27,0,0,1,.26-.26A.23.23,0,0,1,233.71,26Zm-.09,1.27v4.13h-.19V27.25Z"/><path class="cls-1" d="M237.68,28.1a1.49,1.49,0,0,1,.52-.7,1.24,1.24,0,0,1,.79-.26,1.29,1.29,0,0,1,1,.39,1.65,1.65,0,0,1,.36,1.15v2.7h-.19v-2.7a1.57,1.57,0,0,0-.27-1,1.1,1.1,0,0,0-.91-.37,1.12,1.12,0,0,0-.88.39,1.34,1.34,0,0,0-.35,1v2.7h-.2v-2.7c0-.9-.39-1.35-1.17-1.35a1.1,1.1,0,0,0-.88.42,1.5,1.5,0,0,0-.37,1v2.59h-.19V27.25h.19V28a1.3,1.3,0,0,1,1.25-.87A1.21,1.21,0,0,1,237.68,28.1Z"/><path class="cls-1" d="M244.55,27.81a2.44,2.44,0,0,1,.45,1.5,2.51,2.51,0,0,1-.44,1.51,1.61,1.61,0,0,1-1.37.66,1.58,1.58,0,0,1-1.59-1.17V33h-.19V27.25h.19v1.07a1.64,1.64,0,0,1,1.59-1.18A1.59,1.59,0,0,1,244.55,27.81Zm-2.55.1a2.21,2.21,0,0,0-.4,1.38v.1a2.18,2.18,0,0,0,.39,1.34,1.55,1.55,0,0,0,2.41,0,2.33,2.33,0,0,0,.4-1.4,2.29,2.29,0,0,0-.4-1.39,1.42,1.42,0,0,0-1.21-.6A1.37,1.37,0,0,0,242,27.92Z"/><path class="cls-1" d="M248.13,27.21v.21a2.44,2.44,0,0,0-.66-.1,1.19,1.19,0,0,0-1.06.65,2.34,2.34,0,0,0-.32,1.22v2.18h-.2V27.25h.2v.92a1.6,1.6,0,0,1,.5-.7,1.32,1.32,0,0,1,.9-.33A2.1,2.1,0,0,1,248.13,27.21Z"/><path class="cls-1" d="M251.85,27.82a2.37,2.37,0,0,1,.47,1.5,2.42,2.42,0,0,1-.47,1.5,1.83,1.83,0,0,1-2.85,0,2.37,2.37,0,0,1-.47-1.5,2.32,2.32,0,0,1,.47-1.5,1.82,1.82,0,0,1,2.85,0Zm-2.7.11a2.42,2.42,0,0,0,0,2.76,1.54,1.54,0,0,0,1.27.61,1.55,1.55,0,0,0,1.27-.61,2.42,2.42,0,0,0,0-2.76,1.53,1.53,0,0,0-1.27-.61A1.51,1.51,0,0,0,249.15,27.93Z"/><path class="cls-1" d="M252.95,27.25l1.5,3.88,1.5-3.88h.22l-1.62,4.13h-.22l-1.62-4.13Z"/><path class="cls-1" d="M257.3,26a.24.24,0,0,1,.08.18.27.27,0,0,1-.26.26.25.25,0,0,1-.18-.08.23.23,0,0,1-.08-.18.27.27,0,0,1,.26-.26A.23.23,0,0,1,257.3,26Zm-.09,1.27v4.13H257V27.25Z"/><path class="cls-1" d="M261.69,28.85v2.53h-.2V28.85c0-1-.45-1.52-1.33-1.52a1.3,1.3,0,0,0-1,.43,1.64,1.64,0,0,0-.42,1.12v2.5h-.19V27.25h.19v.81a1.55,1.55,0,0,1,.57-.67,1.51,1.51,0,0,1,.86-.25C261.18,27.13,261.69,27.7,261.69,28.85Z"/><path class="cls-1" d="M266.07,28.29v-1h.19v3.81c0,1.34-.6,2-1.79,2a1.83,1.83,0,0,1-1.21-.37,1.5,1.5,0,0,1-.5-1H263a1.32,1.32,0,0,0,.44.82,1.63,1.63,0,0,0,1.08.33c1.06,0,1.6-.62,1.6-1.83v-.91a1.79,1.79,0,0,1-3,.5,2.45,2.45,0,0,1,0-2.85,1.78,1.78,0,0,1,3,.5Zm-2.89-.38a2,2,0,0,0-.42,1.3,2,2,0,0,0,.42,1.3,1.62,1.62,0,0,0,2.48,0,2.09,2.09,0,0,0,.42-1.3,2,2,0,0,0-.42-1.3,1.61,1.61,0,0,0-2.48,0Z"/><path class="cls-1" d="M273.13,27.82a2.36,2.36,0,0,1,.47,1.5,2.42,2.42,0,0,1-.47,1.5,1.83,1.83,0,0,1-2.85,0,2.37,2.37,0,0,1-.47-1.5,2.32,2.32,0,0,1,.47-1.5,1.82,1.82,0,0,1,2.85,0Zm-2.69.11a2.42,2.42,0,0,0,0,2.76,1.53,1.53,0,0,0,1.27.61,1.56,1.56,0,0,0,1.27-.61,2.42,2.42,0,0,0,0-2.76,1.53,1.53,0,0,0-1.27-.61A1.51,1.51,0,0,0,270.43,27.93Z"/><path class="cls-1" d="M276.84,25.67v.19h-.66a.7.7,0,0,0-.58.21,1,1,0,0,0-.18.66v.52h1.36v.19h-1.36v3.94h-.19V27.44H274v-.19h1.23v-.52a1.14,1.14,0,0,1,.22-.77.89.89,0,0,1,.74-.29Z"/><path class="cls-1" d="M280.87,27.25H282v.19h-1.18v3.1a.8.8,0,0,0,.12.5.55.55,0,0,0,.46.14H282v.19h-.51a.75.75,0,0,1-.62-.22,1,1,0,0,1-.14-.62v-3.1h-1v-.19h1V26l.19-.09Z"/><path class="cls-1" d="M283,25.56v2.58a1.75,1.75,0,0,1,.59-.74,1.45,1.45,0,0,1,.84-.26,1.47,1.47,0,0,1,1.09.4,1.56,1.56,0,0,1,.42,1.16v2.69h-.19V28.69a1.4,1.4,0,0,0-.37-1,1.38,1.38,0,0,0-2,.13,1.63,1.63,0,0,0-.43,1.14v2.44h-.2V25.56Z"/><path class="cls-1" d="M290,27.78a3,3,0,0,1,.45,1.6h-3.53a2.15,2.15,0,0,0,.47,1.39,1.49,1.49,0,0,0,1.19.53,1.55,1.55,0,0,0,1.07-.37,1.78,1.78,0,0,0,.49-.88h.21a2,2,0,0,1-.54,1,1.74,1.74,0,0,1-1.23.45,1.68,1.68,0,0,1-1.35-.61,2.4,2.4,0,0,1-.5-1.58,2.33,2.33,0,0,1,.49-1.51,1.8,1.8,0,0,1,2.78,0Zm-2.59.08a2.12,2.12,0,0,0-.49,1.33h3.33c-.09-1.25-.64-1.86-1.66-1.86A1.46,1.46,0,0,0,287.43,27.86Z"/><path class="cls-1" d="M293.67,27.25,295,31.08l1.19-3.83h.22l1.19,3.83,1.32-3.83h.22l-1.44,4.13h-.2l-1.19-3.83-1.2,3.83h-.2l-1.44-4.13Z"/><path class="cls-1" d="M299.89,25.56v2.58a1.75,1.75,0,0,1,.59-.74,1.45,1.45,0,0,1,.84-.26,1.47,1.47,0,0,1,1.09.4,1.57,1.57,0,0,1,.42,1.16v2.69h-.19V28.69a1.4,1.4,0,0,0-.37-1,1.38,1.38,0,0,0-2,.13,1.63,1.63,0,0,0-.43,1.14v2.44h-.2V25.56Z"/><path class="cls-1" d="M307,27.82a2.36,2.36,0,0,1,.47,1.5,2.42,2.42,0,0,1-.47,1.5,1.83,1.83,0,0,1-2.85,0,2.37,2.37,0,0,1-.47-1.5,2.32,2.32,0,0,1,.47-1.5,1.81,1.81,0,0,1,2.85,0Zm-2.69.11a2.42,2.42,0,0,0,0,2.76,1.53,1.53,0,0,0,1.27.61,1.56,1.56,0,0,0,1.27-.61,2.42,2.42,0,0,0,0-2.76,1.53,1.53,0,0,0-1.27-.61A1.51,1.51,0,0,0,304.34,27.93Z"/><path class="cls-1" d="M308.78,25.56v5.82h-.19V25.56Z"/><path class="cls-1" d="M313,27.78a3,3,0,0,1,.45,1.6H310a2.15,2.15,0,0,0,.47,1.39,1.49,1.49,0,0,0,1.19.53,1.55,1.55,0,0,0,1.07-.37,1.78,1.78,0,0,0,.49-.88h.21a2,2,0,0,1-.54,1,1.74,1.74,0,0,1-1.23.45,1.68,1.68,0,0,1-1.35-.61,2.4,2.4,0,0,1-.5-1.58,2.33,2.33,0,0,1,.49-1.51,1.8,1.8,0,0,1,2.78,0Zm-2.59.08a2.12,2.12,0,0,0-.49,1.33h3.33c-.09-1.25-.64-1.86-1.66-1.86A1.46,1.46,0,0,0,310.46,27.86Z"/><path class="cls-1" d="M319.82,28.38h-.19a1.24,1.24,0,0,0-.38-.76,1.49,1.49,0,0,0-1-.3,1.44,1.44,0,0,0-.87.25.67.67,0,0,0,0,1.21,4.07,4.07,0,0,0,.9.32,4.88,4.88,0,0,1,1.09.38.88.88,0,0,1,.5.8c0,.81-.52,1.22-1.56,1.22a1.44,1.44,0,0,1-1.65-1.38h.2a1.27,1.27,0,0,0,.45.93,1.61,1.61,0,0,0,1,.26c.9,0,1.36-.34,1.36-1a.72.72,0,0,0-.44-.66,5.66,5.66,0,0,0-1-.33,4.17,4.17,0,0,1-1-.37.85.85,0,0,1-.46-.76.87.87,0,0,1,.43-.75,1.66,1.66,0,0,1,1-.28A1.38,1.38,0,0,1,319.82,28.38Z"/><path class="cls-1" d="M321.54,27.25h1.18v.19h-1.18v3.1a.8.8,0,0,0,.12.5.55.55,0,0,0,.46.14h.51v.19h-.51a.75.75,0,0,1-.62-.22,1,1,0,0,1-.14-.62v-3.1h-1v-.19h1V26l.19-.09Z"/><path class="cls-1" d="M323.22,27.25,324.74,31l1.52-3.78h.22L324.18,33H324l.68-1.69-1.64-4Z"/><path class="cls-1" d="M327.44,25.56v5.82h-.19V25.56Z"/><path class="cls-1" d="M331.71,27.78a3,3,0,0,1,.45,1.6h-3.53a2.15,2.15,0,0,0,.47,1.39,1.49,1.49,0,0,0,1.19.53,1.55,1.55,0,0,0,1.07-.37,1.78,1.78,0,0,0,.49-.88h.21a2,2,0,0,1-.54,1,1.74,1.74,0,0,1-1.23.45,1.68,1.68,0,0,1-1.35-.61,2.4,2.4,0,0,1-.5-1.58,2.33,2.33,0,0,1,.49-1.51,1.8,1.8,0,0,1,2.78,0Zm-2.59.08a2.12,2.12,0,0,0-.49,1.33H332c-.09-1.25-.64-1.86-1.66-1.86A1.46,1.46,0,0,0,329.12,27.86Z"/><path class="cls-1" d="M333.61,30.93a.25.25,0,0,1,.08.18.27.27,0,0,1-.26.26.25.25,0,0,1-.18-.08.23.23,0,0,1-.08-.18.27.27,0,0,1,.26-.26A.23.23,0,0,1,333.61,30.93Z"/></svg>