<svg id="图层_1" data-name="图层 1" xmlns="http://www.w3.org/2000/svg" viewBox="0 0 382.47 121.88"><defs><style>.cls-1{fill:#fff;}.cls-2{fill:#f86c21;}</style></defs><title>kbs网站</title><path class="cls-1" d="M60.94,34.3H55.59L44.22,20.55a7.57,7.57,0,0,1-.8-1.13h-.1V34.3H39.41V4h3.91V18.28h.1a12.11,12.11,0,0,1,.8-1.11L55.2,4H60L47.32,18.55Z"/><path class="cls-1" d="M64.8,34.3V4h8.89a9.91,9.91,0,0,1,6.37,1.9,6.14,6.14,0,0,1,2.38,5A7.23,7.23,0,0,1,81,15.41a7.59,7.59,0,0,1-3.9,2.71v.08a7.67,7.67,0,0,1,4.93,2.33,7.09,7.09,0,0,1,1.85,5,7.93,7.93,0,0,1-2.8,6.32,10.61,10.61,0,0,1-7.18,2.41ZM68.71,7.46v9.47h3.55a6.62,6.62,0,0,0,4.44-1.38,4.75,4.75,0,0,0,1.61-3.82q0-4.28-5.7-4.28Zm0,12.87V30.88H73.4a7.12,7.12,0,0,0,4.74-1.42,4.88,4.88,0,0,0,1.67-3.94q0-5.19-7.05-5.2Z"/><path class="cls-1" d="M88.5,28.61a10.82,10.82,0,0,0,3.71,2,13.84,13.84,0,0,0,4.41.78q6.37,0,6.37-4.53a4,4,0,0,0-.68-2.29,6.55,6.55,0,0,0-1.87-1.8A49.54,49.54,0,0,0,96,20.37q-4.55-2.26-6-4.21a7.25,7.25,0,0,1-1.45-4.44,7,7,0,0,1,3-6,12.63,12.63,0,0,1,7.64-2.21q4.51,0,6.62,1.09V8.89A11.87,11.87,0,0,0,98.89,7a8,8,0,0,0-4.52,1.16,3.67,3.67,0,0,0-1.75,3.23,3.94,3.94,0,0,0,1.21,3,24.22,24.22,0,0,0,5.25,3.14,18.67,18.67,0,0,1,6.23,4.26,7.28,7.28,0,0,1,1.78,4.79,7.13,7.13,0,0,1-2.89,6.11q-2.89,2.13-8,2.13a20.9,20.9,0,0,1-4.19-.5,10.11,10.11,0,0,1-3.49-1.24Z"/><path class="cls-1" d="M111.31,11.27H126A88.44,88.44,0,0,0,126.54.92h3.36a87.62,87.62,0,0,1-.55,10.35H146q-.23,12.07-.7,19.92-.39,7.3-7.73,7.3-3,0-7.23-.2-.16-1.52-.59-3.63a52.8,52.8,0,0,0,7.23.51q4.69,0,4.92-4.61.55-7.66.7-16.25H128.93q-2.87,17.23-16.05,25.63-1.09-1.37-2.38-2.89,12.15-7.17,15-22.73h-14.2Zm2.77-7.73,2.11-2q3.24,2.81,6.25,5.78l-2.38,2.23Q117.17,6.43,114.08,3.54Zm15.78,17.81L132,19.43q3.75,3.48,6.8,6.84l-2.42,2.19Q133.38,24.9,129.86,21.35Z"/><path class="cls-1" d="M150.06,29.43h5.63v-20h11.48V6.62H150.64V4.12h16.52V1h3V4.12h17.27v2.5H170.21V9.43h12.27v20h5.74v2.5H150.06Zm13.83,2.77,1.84,2.34a130.89,130.89,0,0,1-13.63,5.31q-.59-1.25-1.41-2.73A109.12,109.12,0,0,0,163.89,32.21Zm15.63-20.35H158.65v2.66h20.86Zm-20.86,7.62h20.86V16.82H158.65Zm0,5h20.86V21.78H158.65Zm0,5h20.86v-2.7H158.65Zm13.83,5.31,1.45-2.42q5.94,1.8,13.71,4.57l-1.41,2.77Q179.2,36.93,172.48,34.75Z"/><path class="cls-1" d="M189.63,33.89H196V12.95h3.36V33.89h9.92V7.36H191.43v-3H227v3H212.64V17.6h13v3h-13V33.89h15.9v3H189.63Z"/><path class="cls-1" d="M231.31,7.52h3.95Q236.7,4,237.64,1l3.28.94q-1.23,3-2.38,5.55h7.81V38.61h-3.12v-3h-8.79v3.32h-3.12Zm11.91,2.93h-8.79v9.49h8.79Zm-8.79,22.19h8.79V22.75h-8.79Zm12.5-17.11A57.47,57.47,0,0,0,253.14,1l3.28.82q-1,3-2,5.55H267q-.47,20.08-.78,25.27-.27,6.13-6.45,6.13-3.56,0-7.23-.23a27.18,27.18,0,0,0-.62-3.48H252a51.93,51.93,0,0,0,7.15.55q3.55,0,3.83-3.75.43-5.82.63-21.56H253.14A53.77,53.77,0,0,1,249.63,17,15,15,0,0,0,246.93,15.53Zm3.44,2.66,2.38-1.76q4.34,5.12,6.91,8.87l-2.89,2A94.76,94.76,0,0,0,250.37,18.18Z"/><path class="cls-2" d="M47.27,59.36,43.78,73.71H38.51l4.71-14.36Zm10.19,0L54,73.71H48.7L53.4,59.36Z"/><path class="cls-2" d="M61.89,60.64H84.05V65H76.13v40q0,7.09-7.33,7.09-3,0-4.88-.12a37.87,37.87,0,0,0-1-5.3,24.32,24.32,0,0,0,5.66.65q2.86,0,2.86-2.74V65H61.89ZM99.54,78.75h4.59V85.3A43.64,43.64,0,0,1,102.52,98q10.07,6.43,18.35,12.63l-3.34,4q-8-6.61-16.74-12.51a14.05,14.05,0,0,1-1.31,2.14q-4.95,6.79-17.1,10.6a44.67,44.67,0,0,0-2.86-4.29q11.26-3.22,15.91-8.94,4.11-5.36,4.11-16.2Zm-13.7-7.21H97l1.67-8H85.19V59.21h35.5V63.5H103.47l-1.91,8H118v28.54h-4.59V75.83h-23v24.48H85.84Z"/><path class="cls-2" d="M123,102.1q9.53-2.26,19.36-4.95.06,2.09.18,4.11-10.07,2.74-17.87,5.06Zm8-13.88q6.19-.65,12.63-1.49-.24,2-.48,3.87-9.71,1.19-17.16,2.44l-1.07-4.23q3.54-3.13,8.91-11.38-4.59.33-9.44.83l-1.13-3.75q4.94-5.48,11.5-19.06l4.53,2q-6.14,10.37-10.72,16.8l7.51-.3q2.14-3.51,4.59-7.74l4.29,2Q135.88,81.84,130.94,88.22Zm22.25-6Q152.26,101.86,141,114a31.59,31.59,0,0,0-3.81-3.34,38.21,38.21,0,0,0,9.89-17.93q2.17-8.52,2-29.25h-5.3V59.21h29.73v4.47l-5.78,12h9.89v4.41a65.21,65.21,0,0,1-9.38,18.85,55.15,55.15,0,0,0,14.09,10.16,53.15,53.15,0,0,0-4,4.41,70.14,70.14,0,0,1-13.25-10.6,53.87,53.87,0,0,1-14.39,11.5,32.68,32.68,0,0,0-3.34-3.81,57.43,57.43,0,0,0,14.54-11.47A60.31,60.31,0,0,1,153.19,82.26Zm9.62-6.73,5.72-12.09H153.63q0,4.26,0,8Q158.16,86.91,165,95.31a51.54,51.54,0,0,0,7.68-15.43h-9.89Z"/><path class="cls-2" d="M195.3,59.36,190.6,73.71h-4.05L190,59.36Zm10.25,0-4.71,14.36h-4.05l3.48-14.36Z"/><path class="cls-1" d="M229.26,92.57q0,13.59-3.52,18.83a16.49,16.49,0,0,0-2.73-2.66q3.2-4.3,3.2-16.48V77.64h17.34a31.87,31.87,0,0,0-2.54-3.4l2.58-1.41q1.44,1.72,2.77,3.48l-2.27,1.33h16.41v2.81H229.26Zm.08,1.56a21.89,21.89,0,0,0,6.13-11l2.85.74a32.24,32.24,0,0,1-1.19,3.63q3,2.7,5.84,5.63l-2.46,2.19q-2.36-3-4.51-5.25a25,25,0,0,1-4.24,6A10.34,10.34,0,0,0,229.34,94.13Zm.08,12.85h14.38v-5.62H232V98.62h11.76V81.16h3.28V98.62H259v2.73H247.08V107h14.53v2.81H229.42Zm17.93-12.81a23.67,23.67,0,0,0,6.09-11.09l2.81.82q-.53,1.88-1.17,3.54,3.2,2.89,6.25,6l-2.46,2.19A64.89,64.89,0,0,0,254,90a23.41,23.41,0,0,1-4.16,6.13A8.84,8.84,0,0,0,247.35,94.17Z"/><path class="cls-1" d="M264.34,76.94h5.39a34.79,34.79,0,0,0,.16-3.83h2.85q0,2.07-.14,3.83h9q-.12,3.4-.27,5.63-.23,5.16-4.84,5.16-1.64,0-3.52,0a20.37,20.37,0,0,0-.66-2.62q2.11.16,3.55.16,2.46,0,2.66-2.7.08-1.21.16-3.09h-6.41q-.74,6.21-7.58,9.92a16.86,16.86,0,0,0-1.84-2.62q5.78-2.81,6.5-7.3h-5Zm-.23,25.66h28.13v2.5H264.11Zm9.45-9.26-.78,3.79H290l.7-5h-22.5v-2.5H294l-1,7.5h6.33q-.23,4.42-.55,8.09-.43,5.63-6.25,5.63-2.58,0-7.27-.12a21.48,21.48,0,0,0-.55-3.09q3.94.31,7.27.31,3.55,0,3.83-3,.27-2.73.39-5.27H269.34l1.21-6.29ZM284.73,76h14.38V87.76h-2.81V86.47h-8.75v1.21h-2.81Zm11.56,2.42h-8.75v5.63h8.75Z"/><path class="cls-1" d="M305.71,84.71h13.16q.86-3.2,1.56-6.45h-16.8V75.38h37.58v2.89h-17.3q-.94,3.34-2,6.45H339v22q0,4.49-4.06,4.49-2.54,0-5.12-.12-.43-2.77-.59-3.24a44.66,44.66,0,0,0,4.65.27,1.88,1.88,0,0,0,2.11-2.15V87.61h-7.23v21.52h-2.93V87.61h-7.11v21.52h-2.93V87.61h-7.11v23.79h-3Z"/><path class="cls-1" d="M343.25,106.2h18.13v-10H347.54v-3h13.83v-9H351.06a46.6,46.6,0,0,1-6,8.48A21.61,21.61,0,0,0,343,89.95a45.45,45.45,0,0,0,8.71-15.08l3.2.86q-1,2.85-2.29,5.47h8.77V72.92h3.36V81.2h14.92v3H364.73v9h13.83v3H364.73v10h17v2.93H343.25Z"/></svg>