<?xml version="1.0" encoding="utf-8"?>
<!-- Generator: Adobe Illustrator 21.0.2, SVG Export Plug-In . SVG Version: 6.00 Build 0)  -->
<svg version="1.1" id="图层_1" xmlns="http://www.w3.org/2000/svg" xmlns:xlink="http://www.w3.org/1999/xlink" x="0px" y="0px"
	 viewBox="0 0 239.7 59.8" style="enable-background:new 0 0 239.7 59.8;" xml:space="preserve">
<style type="text/css">
	.st0{opacity:0.1;clip-path:url(#SVGID_2_);}
	.st1{opacity:0.1;clip-path:url(#SVGID_4_);}
	.st2{fill:#111111;}
	.st3{opacity:0.15;}
	.st4{opacity:7.000000e-02;}
	.st5{opacity:0.13;}
	.st6{opacity:0.21;}
	.st7{opacity:0.2;fill:url(#SVGID_5_);}
	.st8{opacity:0.3;}
	.st9{fill:#333333;}
	.st10{fill:#FFFFFF;}
	.st11{fill:#231815;}
	.st12{fill:#ED6C00;}
	.st13{opacity:0.16;}
	.st14{fill:#F86C21;}
	.st15{fill:#555555;}
	.st16{opacity:0.4;}
	.st17{opacity:0.6;}
	.st18{opacity:0.29;}
	.st19{fill:#969696;}
	.st20{fill:#666666;}
	.st21{fill:none;}
	.st22{fill:none;stroke:#555555;stroke-miterlimit:10;}
	.st23{fill:none;stroke:#555555;stroke-width:0.25;stroke-miterlimit:10;}
	.st24{fill:#006837;}
	.st25{opacity:0.45;fill:#006837;}
	.st26{fill:none;stroke:#FFFFFF;stroke-width:0.25;stroke-miterlimit:10;}
	.st27{clip-path:url(#SVGID_7_);}
	.st28{fill:none;stroke:#FFFFFF;stroke-width:0.5;stroke-miterlimit:10;}
	.st29{fill:none;stroke:#969696;stroke-width:0.5;stroke-miterlimit:10;}
	.st30{clip-path:url(#SVGID_9_);}
	.st31{clip-path:url(#SVGID_11_);}
	.st32{clip-path:url(#SVGID_13_);}
	.st33{fill:#FFFFFF;stroke:#F86C21;stroke-width:2;stroke-miterlimit:10;}
	.st34{fill:none;stroke:#F86C21;stroke-width:2;stroke-miterlimit:10;}
	.st35{opacity:0.8;}
	.st36{opacity:0.35;}
	.st37{fill:#F4901E;}
	.st38{opacity:0.72;}
	.st39{fill:none;stroke:#F86C21;stroke-miterlimit:10;}
	.st40{fill:#FFE6D2;}
	.st41{fill:#FFF8F1;}
	.st42{fill:url(#SVGID_14_);}
	.st43{fill:url(#SVGID_15_);}
	.st44{fill:url(#SVGID_16_);}
	.st45{opacity:0.5;}
	.st46{fill:url(#SVGID_17_);}
	.st47{fill:url(#SVGID_18_);stroke:#F86C21;stroke-width:2;stroke-miterlimit:10;}
	.st48{fill:#FF8231;}
	.st49{fill:none;stroke:#FF8231;stroke-width:2;stroke-linejoin:round;stroke-miterlimit:10;}
	.st50{opacity:0.3;fill:#FF8231;}
	.st51{fill:url(#SVGID_19_);stroke:#F86C21;stroke-width:2;stroke-miterlimit:10;}
	.st52{fill:none;stroke:#FF8231;stroke-width:2;stroke-linecap:round;stroke-linejoin:round;stroke-miterlimit:10;}
	.st53{fill:url(#SVGID_20_);stroke:#F86C21;stroke-width:2;stroke-miterlimit:10;}
	.st54{fill:none;stroke:#FF8231;stroke-linecap:round;stroke-linejoin:round;stroke-miterlimit:10;}
	.st55{fill:url(#SVGID_21_);stroke:#F86C21;stroke-width:2;stroke-miterlimit:10;}
	.st56{fill:url(#SVGID_22_);stroke:#F86C21;stroke-width:2;stroke-miterlimit:10;}
	.st57{fill:url(#SVGID_23_);stroke:#F86C21;stroke-width:2;stroke-miterlimit:10;}
	.st58{fill:#F04E06;}
	.st59{opacity:0.2;}
	.st60{opacity:0.4;fill:#FFFFFF;}
	.st61{fill:#EFEFEF;}
	.st62{fill:none;stroke:#333333;stroke-miterlimit:10;}
	.st63{opacity:0.3;fill:none;stroke:#333333;stroke-width:0.5;stroke-miterlimit:10;}
	.st64{opacity:0.2;fill:url(#SVGID_24_);}
	.st65{clip-path:url(#SVGID_26_);}
	.st66{clip-path:url(#SVGID_28_);}
	.st67{clip-path:url(#SVGID_30_);}
	.st68{clip-path:url(#SVGID_32_);}
	.st69{clip-path:url(#SVGID_34_);}
	.st70{fill:url(#SVGID_35_);stroke:#F86C21;stroke-width:2;stroke-miterlimit:10;}
	.st71{fill:url(#SVGID_36_);stroke:#F86C21;stroke-width:2;stroke-miterlimit:10;}
	.st72{fill:url(#SVGID_37_);stroke:#F86C21;stroke-width:2;stroke-miterlimit:10;}
	.st73{fill:url(#SVGID_38_);stroke:#F86C21;stroke-width:2;stroke-miterlimit:10;}
	.st74{fill:url(#SVGID_39_);stroke:#F86C21;stroke-width:2;stroke-miterlimit:10;}
	.st75{fill:url(#SVGID_40_);stroke:#F86C21;stroke-width:2;stroke-miterlimit:10;}
	.st76{fill:url(#SVGID_41_);stroke:#F86C21;stroke-width:2;stroke-miterlimit:10;}
	.st77{fill:url(#SVGID_42_);stroke:#F86C21;stroke-width:2;stroke-miterlimit:10;}
	.st78{fill:url(#SVGID_43_);stroke:#F86C21;stroke-width:2;stroke-miterlimit:10;}
	.st79{fill:url(#SVGID_44_);stroke:#F86C21;stroke-width:2;stroke-miterlimit:10;}
	.st80{fill:url(#SVGID_45_);stroke:#F86C21;stroke-width:2;stroke-miterlimit:10;}
	.st81{fill:url(#SVGID_46_);stroke:#F86C21;stroke-width:2;stroke-miterlimit:10;}
	.st82{opacity:0.2;fill:#FFFFFF;}
	.st83{opacity:0.6;fill:#FFFFFF;}
	.st84{clip-path:url(#SVGID_50_);}
	.st85{clip-path:url(#SVGID_52_);}
	.st86{clip-path:url(#SVGID_54_);}
	.st87{clip-path:url(#SVGID_56_);}
	.st88{clip-path:url(#SVGID_58_);}
	.st89{clip-path:url(#SVGID_60_);}
	.st90{opacity:0.2;fill:url(#SVGID_63_);}
	.st91{clip-path:url(#SVGID_65_);}
	.st92{clip-path:url(#SVGID_67_);}
	.st93{clip-path:url(#SVGID_69_);}
	.st94{clip-path:url(#SVGID_71_);}
</style>
<g>
	<g>
		<path class="st10" d="M8.5,37.7l2-17.9c-1.4,1-2.6,1.7-3.5,2.3l-2.3,1.3c0,0-0.2,0.1-0.5,0.3l0.2-2.1c2.8-1,6-2.7,9.5-5.2
			l-2.3,21.2H17l-2.1,1.7H2.5l2.1-1.7H8.5z"/>
		<path class="st10" d="M19.8,45.3l2.7-2.8c2,0.8,3.8,1.3,5.4,1.3c2,0,3.6-0.6,4.9-1.7c1.2-1.1,1.9-2.5,1.9-4.3c0-2.1-0.9-3.7-2.6-5
			s-4-1.9-6.9-1.9c-0.5,0-1.2,0-1.9,0.1l1.6-10l3.1-3.3h11.9l-2.6,2.6h-9.7l-1.3,7.4c7,0.5,10.5,3.1,10.5,7.8c0,2.9-1.2,5.3-3.5,7.4
			C31,45,28.2,46,25,46C22.9,46,21.2,45.8,19.8,45.3z"/>
		<path class="st10" d="M47.6,29.1c1-1.9,2.4-3.4,4.2-4.5c1.7-1.1,3.5-1.7,5.3-1.7c1.7,0,3.1,0.6,4.2,1.8c1.1,1.2,1.6,2.8,1.6,4.6
			c0,2.7-1.1,5.2-3.2,7.3c-2.1,2.2-4.6,3.3-7.2,3.3c-2.4,0-4.4-0.9-5.9-2.7c-1.5-1.8-2.3-4.1-2.3-7c0-4.9,1.8-9.3,5.4-13.3
			C53.2,13,57.3,11,61.8,11c1.7,0,3.3,0.3,5,0.8l-2.9,2.8c-1.7-1-3.4-1.6-5.3-1.6c-2.8,0-5.1,1.2-7,3.5c-1.1,1.4-2.1,3.2-2.9,5.6
			c-0.8,2.3-1.2,4.4-1.2,6.3V29.1z M47.9,31.2c0.9,4.6,3.1,6.9,6.7,6.9c1.6,0,2.9-0.6,4-1.7c1.1-1.2,1.6-2.6,1.6-4.3
			c0-2-0.5-3.6-1.6-4.9c-1-1.3-2.4-1.9-4-1.9C51.3,25.2,49.1,27.2,47.9,31.2z"/>
		<path class="st10" d="M67,39.3l2.7-2.6c3.9-0.9,7-2.5,9.4-4.7c2.4-2.2,3.6-4.6,3.6-7.3c0-1.5-0.6-2.8-1.7-3.8
			c-1.1-1-2.6-1.5-4.3-1.5c-2.1,0-4.1,0.8-6.1,2.3c-0.1-0.3-0.2-0.5-0.2-0.6c0-0.8,1.1-1.6,3.4-2.6c2.2-1,4.3-1.4,6-1.4
			c1.8,0,3.3,0.6,4.6,1.7s2,2.4,2,3.9c0,2-1.2,4.4-3.6,7.1c-2.4,2.7-5.4,5-8.8,6.9l12.6,0.6l-2.5,2.5L67,39.3z"/>
		<path class="st10" d="M92.8,32.8c0-4,1.4-7.6,4.1-10.8c2.7-3.3,5.7-4.9,9-4.9c1.7,0,3.2,0.7,4.2,2s1.6,3.1,1.6,5.3
			c0,3.8-1.4,7.3-4.1,10.5c-2.8,3.2-5.8,4.9-9,4.9c-1.7,0-3.1-0.7-4.2-2S92.8,34.9,92.8,32.8z M108.5,27.1c0-2.3-0.5-4.2-1.5-5.6
			c-1-1.4-2.4-2.1-4-2.1c-1.9,0-3.5,1-4.8,3.1c-1.3,2.1-2,4.5-2,7.4c0,2.3,0.5,4.2,1.5,5.7c1,1.4,2.4,2.1,4,2.1c1.9,0,3.5-1,4.8-3.1
			S108.5,30,108.5,27.1z"/>
		<path class="st10" d="M122.9,29.5c4.8,0.8,7.1,3,7.1,6.6c0,2.5-1.3,4.8-3.8,6.9c-2.5,2-5.4,3-8.5,3c-1.7,0-3.4-0.3-5.1-0.8
			l2.5-2.7c2,0.9,3.9,1.3,5.7,1.3c1.9,0,3.4-0.5,4.7-1.6c1.2-1.1,1.8-2.4,1.8-4c0-1.9-0.9-3.5-2.6-4.7s-4.1-1.7-7.1-1.7
			c-0.5,0-1,0.1-1.5,0.2l2.6-2.5h0.7c0.2,0,0.6,0,1.1,0c4.6-1.1,6.8-3.3,6.8-6.4c0-1.2-0.4-2.2-1.2-2.9c-0.8-0.8-1.9-1.1-3.2-1.1
			c-2.1,0-3.8,0.7-5.1,2.1c-0.1-0.3-0.2-0.5-0.2-0.6c0-0.7,0.8-1.4,2.4-2.1c1.6-0.7,3.2-1.1,4.7-1.1c1.8,0,3.3,0.4,4.4,1.3
			c1.2,0.9,1.7,2,1.7,3.4C130.8,24.7,128.2,27.3,122.9,29.5z"/>
		<path class="st10" d="M141.2,37.7l2-17.9c-1.4,1-2.6,1.7-3.5,2.3l-2.3,1.3c0,0-0.2,0.1-0.5,0.3l0.2-2.1c2.8-1,6-2.7,9.5-5.2
			l-2.3,21.2h5.4l-2.1,1.7h-12.4l2.1-1.7H141.2z"/>
		<path class="st10" d="M154.7,32.8c0-4,1.4-7.6,4.1-10.8c2.7-3.3,5.7-4.9,9-4.9c1.7,0,3.2,0.7,4.2,2s1.6,3.1,1.6,5.3
			c0,3.8-1.4,7.3-4.1,10.5c-2.8,3.2-5.8,4.9-9,4.9c-1.7,0-3.1-0.7-4.2-2S154.7,34.9,154.7,32.8z M170.4,27.1c0-2.3-0.5-4.2-1.5-5.6
			c-1-1.4-2.4-2.1-4-2.1c-1.9,0-3.5,1-4.8,3.1c-1.3,2.1-2,4.5-2,7.4c0,2.3,0.5,4.2,1.5,5.7c1,1.4,2.4,2.1,4,2.1c1.9,0,3.5-1,4.8-3.1
			S170.4,30,170.4,27.1z"/>
		<path class="st10" d="M184.5,24.2l-0.5-0.4c-2.5-2-3.7-3.9-3.7-5.6c0-1.9,0.9-3.6,2.7-5c1.8-1.5,3.8-2.2,6.1-2.2
			c1.8,0,3.2,0.5,4.4,1.5c1.1,1,1.7,2.2,1.7,3.8c0,2.2-1.7,4.6-5.1,7l-0.9,0.6l0.5,0.4c3.4,2.6,5.1,4.8,5.1,6.7
			c0,2.2-1.1,4.2-3.3,6.1c-2.2,1.9-4.5,2.8-7,2.8c-2,0-3.7-0.6-5.1-1.9s-2.1-2.8-2.1-4.7C177.2,30,179.7,27,184.5,24.2z M185.1,24.8
			c-3.2,2.3-4.8,4.6-4.8,6.7c0,1.7,0.7,3.1,2.1,4.3c1.4,1.2,3,1.8,4.9,1.8c1.3,0,2.5-0.4,3.5-1.3c1-0.9,1.5-2,1.5-3.2
			c0-1.8-2.1-4.4-6.2-7.8L185.1,24.8z M188.4,23.2c2.4-1.3,3.7-3.2,3.7-5.8c0-1.4-0.5-2.6-1.5-3.6c-1-0.9-2.2-1.4-3.8-1.4
			c-1.2,0-2.3,0.3-3.1,1s-1.2,1.6-1.2,2.6c0,1.7,1.6,3.7,4.9,6.3L188.4,23.2z"/>
		<path class="st10" d="M204.3,44.5l-4.2,1.5c1.2-6.3,6.5-14.5,15.8-24.5l1.1-1.1l-15.3-0.3l2.8-2.7l17.5,0.3l-2.8,2.7
			c-4.4,4.1-7.9,8.3-10.4,12.4S204.7,40.9,204.3,44.5z"/>
		<path class="st10" d="M229.9,29.5c4.8,0.8,7.1,3,7.1,6.6c0,2.5-1.3,4.8-3.8,6.9c-2.5,2-5.4,3-8.5,3c-1.7,0-3.4-0.3-5.1-0.8
			l2.5-2.7c2,0.9,3.9,1.3,5.7,1.3c1.9,0,3.4-0.5,4.7-1.6c1.2-1.1,1.8-2.4,1.8-4c0-1.9-0.9-3.5-2.6-4.7s-4.1-1.7-7.1-1.7
			c-0.5,0-1,0.1-1.5,0.2l2.6-2.5h0.7c0.2,0,0.6,0,1.1,0c4.6-1.1,6.8-3.3,6.8-6.4c0-1.2-0.4-2.2-1.2-2.9c-0.8-0.8-1.9-1.1-3.2-1.1
			c-2.1,0-3.8,0.7-5.1,2.1c-0.1-0.3-0.2-0.5-0.2-0.6c0-0.7,0.8-1.4,2.4-2.1c1.6-0.7,3.2-1.1,4.7-1.1c1.8,0,3.3,0.4,4.4,1.3
			c1.2,0.9,1.7,2,1.7,3.4C237.8,24.7,235.2,27.3,229.9,29.5z"/>
	</g>
</g>
</svg>
